<?xml version="1.0" encoding="utf-8"?>
<!-- Generator: Adobe Illustrator 22.1.0, SVG Export Plug-In . SVG Version: 6.00 Build 0)  -->
<svg version="1.1" id="图层_1" xmlns="http://www.w3.org/2000/svg" xmlns:xlink="http://www.w3.org/1999/xlink" x="0px" y="0px"
	 viewBox="0 0 670 100" style="enable-background:new 0 0 670 100;" xml:space="preserve">
<style type="text/css">
	.st0{fill:#353535;}
	.st1{fill:#45A8E0;}
	.st2{fill:#F8D14A;}
	.st3{fill:none;}
	.st4{fill:#F04D98;}
	.st5{fill:#BC2076;}
	.st6{fill:#D1A424;}
	.st7{fill:#2A8EBA;}
	.st8{fill:#333333;}
	.st9{font-family:'PingFangSC-Regular-GBpc-EUC-H';}
	.st10{font-size:48px;}
</style>
<g>
	<path class="st0" d="M302.3,14v19.4c-4-3.6-7.7-5.4-12.9-5.4c-6,0-10.9,2.1-15,6.4c-4.2,4.2-6.1,9.4-6.1,15.4
		c0,6,2.1,11.1,6.3,15.4c4.1,4.3,8.7,6.4,14.5,6.4c5.1,0,9.3-1.9,13.3-5.6V71h8V14H302.3z M290.1,64c-3.8,0-6.9-1.4-9.6-4.2
		c-2.7-2.9-4-6.1-4-9.9c0-3.8,1.3-7.1,3.9-9.9c2.6-2.8,5.8-4.2,9.8-4.2c4,0,7.1,1.3,9.7,4c2.6,2.7,3.9,6.1,3.9,10.2
		c0,4.1-1.4,7.4-4.2,10C296.7,62.7,293.6,64,290.1,64z"/>
	<path class="st0" d="M209.3,28v5.4c-4-3.6-8.1-5.4-13.2-5.4c-5.8,0-10.7,2.1-14.9,6.2c-4.2,4.1-6.2,9.1-6.2,14.9
		c-0.1,5.5,2,10.4,6,14.5c4,4.1,9,6.1,15,6.1c3,0,5.9-0.6,8.6-1.7c2-0.8,3.8-1.9,5.3-3.3c-0.1,2.8-0.6,4.9-1.3,6.3
		c-0.9,1.7-2.4,3.1-4.5,4.2c-2.2,1.1-4.7,1.6-7.6,1.6c-6.1,0-10.4-2.4-13-7.1l-0.3-0.6h-8.4l0.5,1.5c3.6,9,10.8,13.7,21.4,13.7
		c3.1,0,6-0.4,8.6-1.4c2.6-0.9,4.9-2.3,6.8-4.1c1.9-1.8,3-4.1,3.9-6.7c0.9-2.6,1-6.5,1-11.8V28H209.3z M210.3,49.1
		c0,3.8-1.2,6.9-3.8,9.3c-2.5,2.5-5.7,3.6-9.8,3.6c-4,0-7.2-1.2-9.8-3.7c-2.6-2.5-3.8-5.4-3.8-9c0-3.6,1.3-6.7,4-9.4
		c2.7-2.7,5.9-4.1,9.9-4.1c3.7,0,6.8,1.2,9.4,3.7C209,42.1,210.3,45.2,210.3,49.1z"/>
	<path class="st0" d="M148.6,31.9c-4.4-3-8.1-4-12.8-4c-6,0-11.1,2.1-15.3,6.4c-4.2,4.2-6.3,9.4-6.3,15.3c0,5.9,2.1,11.1,6.2,15.4
		c4.1,4.3,9.2,6.5,15,6.5c5.1,0,9.8-1.9,13.8-5.6V71h8c0,0,0-21.5,0-23.7c0-4.1-2.5-8.8-3.4-10.1c-0.8-1.2-2.2-2.6-3-3.4
		C150.1,33,149.1,32.2,148.6,31.9z M136,63.9c-3.8,0-6.9-1.4-9.6-4.2c-2.7-2.8-4-6.1-4-9.9c0-3.9,1.3-7.1,4-9.9
		c2.7-2.8,5.8-4.2,9.7-4.2c3.9,0,7,1.3,9.7,4.1c2.7,2.7,4,6,4,10.1c0,4.1-1.3,7.3-4,10.1C142.9,62.6,139.7,63.9,136,63.9z"/>
	<path class="st0" d="M349.1,31.9c-4.4-3-8.1-4-12.8-4c-6,0-11.1,2.1-15.3,6.4c-4.2,4.2-6.3,9.4-6.3,15.3c0,5.9,2.1,11.1,6.2,15.4
		c4.1,4.3,9,6.5,14.8,6.5c5.1,0,9.5-1.9,13.5-5.6V71h8c0,0,0-21.5,0-23.7c0-4.1-2.2-8.8-3.1-10.1c-0.8-1.2-2.1-2.6-2.9-3.4
		C350.4,33,349.6,32.2,349.1,31.9z M336.5,63.9c-3.8,0-6.9-1.4-9.6-4.2c-2.7-2.8-4-6.1-4-9.9c0-3.9,1.3-7.1,4-9.9
		c2.7-2.8,5.8-4.2,9.7-4.2c3.9,0,7,1.3,9.7,4.1c2.7,2.7,4,6,4,10.1c0,4.1-1.3,7.3-4,10.1C343.4,62.6,340.2,63.9,336.5,63.9z"/>
	<path class="st0" d="M419.1,31.9c-4.4-3-8.1-4-12.8-4c-6,0-11.1,2.1-15.3,6.4c-4.2,4.2-6.3,9.4-6.3,15.3c0,5.9,2.1,11.1,6.2,15.4
		c4.1,4.3,9,6.5,14.8,6.5c5.1,0,9.5-1.9,13.5-5.6V71h8c0,0,0-21.5,0-23.7c0-4.1-2.2-8.8-3.1-10.1c-0.8-1.2-2.1-2.6-2.9-3.4
		C420.4,33,419.6,32.2,419.1,31.9z M406.5,63.9c-3.8,0-6.9-1.4-9.6-4.2c-2.7-2.8-4-6.1-4-9.9c0-3.9,1.3-7.1,4-9.9
		c2.7-2.8,5.8-4.2,9.7-4.2c3.9,0,7,1.3,9.7,4.1c2.7,2.7,4,6,4,10.1c0,4.1-1.3,7.3-4,10.1C413.4,62.6,410.2,63.9,406.5,63.9z"/>
	<path class="st1" d="M166.4,14.2c1.3,0,2.4,0.4,3.3,1.3c0.9,0.9,1.3,2,1.3,3.2c0,1.3-0.4,2.4-1.3,3.2c-0.9,0.9-2,1.3-3.2,1.3
		s-2.4-0.5-3.2-1.4c-0.9-0.9-1.3-2-1.3-3.2c0-1.2,0.4-2.3,1.3-3.2C164,14.7,165.1,14.2,166.4,14.2z"/>
	<rect x="163.4" y="29.1" class="st0" width="6" height="41.2"/>
	<rect x="162.4" y="28" class="st0" width="8" height="43.3"/>
	<rect x="164.4" y="30.1" class="st0" width="4" height="39.2"/>
	<path class="st1" d="M166.4,24.3c-1.5,0-2.9-0.6-4-1.7c-1.1-1.1-1.6-2.4-1.6-3.9c0-1.5,0.5-2.8,1.6-3.9c1.1-1.1,2.4-1.7,3.9-1.7
		c1.6,0,2.9,0.5,4,1.6c1.1,1.1,1.6,2.4,1.6,3.9c0,1.5-0.5,2.9-1.6,3.9C169.3,23.8,167.9,24.3,166.4,24.3z"/>
	<path class="st1" d="M166.4,15.2c-1,0-1.8,0.3-2.5,1.1c-0.7,0.7-1,1.5-1,2.5c0,1,0.3,1.8,1,2.5c0.7,0.7,1.5,1.1,2.5,1.1
		c1,0,1.8-0.3,2.5-1c0.7-0.7,1-1.5,1-2.5c0-1-0.3-1.8-1-2.5C168.2,15.5,167.4,15.2,166.4,15.2z"/>
	<path class="st0" d="M258.1,34.3c-4.1-4.3-9.2-6.4-15.2-6.4c-6,0-11.1,2.2-15.2,6.4c-4.1,4.3-6.2,9.4-6.2,15.4
		c0,6,2.1,11.1,6.2,15.3c4.1,4.2,9.2,6.4,15.3,6.4c6,0,11.1-2.2,15.2-6.4c4.1-4.2,6.1-9.4,6.1-15.3S262.2,38.6,258.1,34.3z
		 M243,63.7c-3.9,0-7-1.3-9.6-4c-2.6-2.7-3.8-5.9-3.8-9.8c0-3.9,1.3-7.2,4-10c2.7-2.8,5.7-4.2,9.4-4.2c3.7,0,6.7,1.4,9.4,4.2
		c2.7,2.8,4,6.1,4,10c0,3.9-1.3,7.1-3.9,9.8C249.8,62.4,246.7,63.7,243,63.7z"/>
	<path class="st0" d="M383.3,36v-7h-11V14h-8v15.3l0,0v7l0,0v22.3c0,2.7,0.1,7.9,1.1,9.7c1.3,2.3,4.3,3,6.9,3c1.3,0,5.9-0.1,8.3-0.5
		l0.7-0.1V63h-6.1c-3.1,0-2.9-1.8-2.9-3.7V36H383.3z"/>
</g>
<g>
	<polygon class="st0" points="50.4,43 54.8,51 59.2,59 50.4,59 41.5,59 46,51 	"/>
	<polygon class="st2" points="57.8,33.3 51,21.4 44.1,33.3 51,45.1 	"/>
	<polygon class="st3" points="44.6,56 57.3,56 51,45 	"/>
	<polygon class="st4" points="44.6,56 37.8,68 64.1,68 57.3,56 	"/>
	<polygon class="st5" points="54.9,56 61.8,68 75.4,68 68.6,56 	"/>
	<path class="st4" d="M20.8,56c-3.1,0-5.4,2.6-5.4,5.7v0.6c0,3.1,2.3,5.7,5.4,5.7h3.4L31,56H20.8z"/>
	<path class="st4" d="M80.6,56H71l6.8,12h2.8c3.1,0,5.8-2.6,5.8-5.7v-0.6C86.3,58.6,83.7,56,80.6,56z"/>
	<path class="st2" d="M23.2,69.6c-1.6,2.7-0.6,6.1,2.1,7.7l0.5,0.3c2.7,1.6,6.1,0.7,7.7-2l4.4-7.5H24.1L23.2,69.6z"/>
	<polygon class="st6" points="29.5,59 23,70 36.6,70.2 43.1,59 	"/>
	<polygon class="st4" points="31,56 24.1,68 37.9,68 44.9,56 	"/>
	<path class="st1" d="M68.5,75.5c1.6,2.7,5,3.6,7.7,2l0.5-0.3c2.7-1.6,3.6-4.9,2.1-7.6L77.8,68H64.1L68.5,75.5z"/>
	<polygon class="st1" points="57.3,56 64.1,68 77.8,68 71,56 	"/>
	<path class="st2" d="M42.6,38.2c0-1.8,0.6-3.5,1.6-4.9l0-0.1L31,56h13.7l5.4-9.4C45.8,46.1,42.6,42.6,42.6,38.2z"/>
	<path class="st1" d="M57.8,33.3L57.8,33.3c0,0.1,0,0.1,0.1,0.1L57.8,33.3z"/>
	<path class="st2" d="M57.8,33.3c-1.5-2.1-4-3.5-6.8-3.5c-2.8,0-5.3,1.4-6.8,3.5L51,45.1L57.8,33.3z"/>
	<path class="st2" d="M44.2,33.3c-1,1.4-1.6,3.1-1.6,4.9c0,4.4,3.3,7.9,7.5,8.4l0.9-1.5L44.2,33.3z"/>
	<path class="st1" d="M58.6,34.7l-0.8-1.3c0,0-0.1-0.1-0.1-0.1L51,45.1l0.9,1.5l5.4,9.4H71L58.6,34.7z"/>
	<path class="st7" d="M59,35.3l-1.1-2c0,0-0.1-0.1-0.1-0.1L51,45.1l1.2,2.1L59,35.3z"/>
	<path class="st2" d="M63.3,23.7c1.6-2.7,0.6-6.1-2.1-7.7l-0.5-0.3c-2.7-1.6-6.1-0.6-7.7,2.1L51,21.4l6.8,11.8L63.3,23.7z"/>
	<path class="st1" d="M48.8,17.7c-1.6-2.7-5-3.6-7.7-2.1L40.6,16c-2.7,1.6-3.6,5-2.1,7.7l5.5,9.6L51,21.4L48.8,17.7z"/>
</g>
<text transform="matrix(1 0 0 1 462.3333 66)" class="st8 st9 st10">旗下产品</text>
</svg>
