<?xml version="1.0" encoding="utf-8"?>
<!-- Generator: Adobe Illustrator 22.1.0, SVG Export Plug-In . SVG Version: 6.00 Build 0)  -->
<svg version="1.1" id="图层_1" xmlns="http://www.w3.org/2000/svg" xmlns:xlink="http://www.w3.org/1999/xlink" x="0px" y="0px"
	 viewBox="0 0 200 200" style="enable-background:new 0 0 200 200;" xml:space="preserve">
<style type="text/css">
	.st0{fill:#FDEE21;}
	.st1{fill:#C8C037;}
	.st2{fill:#FCF6A0;}
	.st3{fill:#FFFFFF;}
</style>
<path d="M119.1,150.1v38h9.3v-17.4l1.9,0V188h9.4v-38h-9.4v14.1h-1.9v-14.1H119.1z M151.4,150.1h-9.1v38h9.1V150.1z M152.9,150.1
	l7.2,38h10.8l7.2-38h-9.6l-2.4,16.2c-0.2,0.6-0.9,0.6-1,0l-2.4-16.2L152.9,150.1z M198,150.1h-18v38h18v-10l-10-0.1v-4.3h4.8v-9.9
	h-4.8V160h10L198,150.1z"/>
<path class="st0" d="M100.7,35c-1.5-4.2-53.7-24.5-54.4-22.2c-9.6,2.5-13.5,13.5-20.1,20.5l-14.6-0.8C5.1,40.7,1.7,49.2,4,58
	c8.3,11.2,17.9,20.7,23.8,34.8c0.5,6.6,28.7,0.7,34.8-0.6c-8.3,5.9-15.5,15.1-12.4,41.5C53.1,146.1,55,160,80,174
	c3.3,1.8,10.1,4,14.3,5.5c4,1.9,8.8,2.6,22.1-1.5c7.7-3.3,16-5.3,23.6-8.6l-9.1,0.4c-12.5,0.3-22.1,1.2-25.1-2.3l-11.5-19.8l6.7-13
	c9.3,0.9,12.3,8.5,20.5,11.3l9.6-7.1c28,16.5,39.1-10.5,42.3-31.5c-0.3-8.5-18.5,2.7-17.4-1.3c0.4-9.2-7.1-21.2-11.9-30.6l5.6-21.7
	c2.5-2.3-11.8-26.4-23.4-29.4C116.1,22,100.7,35,100.7,35L100.7,35z"/>
<path class="st1" d="M146.6,81c0.1,2.3,0.1,5.2,0.3,6.9c0,1.3-1,1.4-1.9,1.7l5.4,2c1.1,1.8,1.9,3.6,2.8,5.5c1,4.5,0.3,4.6-0.4,4.9
	c-2,0-3.9,0-5.8-0.4c0.8,0.4,1,0.8,1.1,1.3c0.2,1-0.5,2.4-1.6,3.8c1.6,0.9,4.5,1.8,6.7,2.6l2.5-5.5C154.7,95.6,151.2,88.1,146.6,81
	L146.6,81z M156.7,108.2c3,1.3,7.2,0.9,13-2.1c0.9-0.6,1.7-0.2,0.1,0.8C162.2,113.7,158.6,110.3,156.7,108.2L156.7,108.2z"/>
<path class="st1" d="M170.3,105.3c0.9,1.7,0.4,3.1,0.1,4.6c-0.9,7.4-3.2,13.2-7.7,19.3c-14.7,23.6-29.5,8.8-41.3-0.8l-4.9,12.2
	c-0.3,1.1-1.3,1.9,6.3,5.3l7.8-5.5C160.1,162.9,181.1,108.8,170.3,105.3L170.3,105.3z M124.9,126.3c-2,0.1-7.9,2.2-8.2,3.3l2.7-4.1
	L124.9,126.3z M121,101.3c0.4,0,2.1,0.5,1.9,0.4c-0.3-0.2,0,2.5,0.5,3.8l-2.1,4.7c4.1-4.7,10.6-4.4,16.6-5l-2.9-1.8
	c0.5-1.7-0.1-3-0.4-4.4L121,101.3z M131.1,87.3c-4.4,1.4-8.6,3.6-11.5,8.3c2.2-7.8,2.6-7.5,3.3-7.8C126,86.3,128.4,87.2,131.1,87.3
	L131.1,87.3z"/>
<path class="st2" d="M107.6,178.2c-5.3,5.9-17.2-0.4-27.1-3.7c-25.1-16-30-31-30.3-45.7c-1.3-21.1,5.2-33.4,13.4-36.3
	c-5.4,10.5-8,29.2-5.4,43.2c2,7.8,2.1,20.9,15.1,27.9c6.4,3.6,4.6,6.4,8.9,9.7C86.8,177,100,180.5,107.6,178.2L107.6,178.2z
	 M115.5,80.6c-9-12.8-21.7-17.6-36-18.1c2.9-0.9,5.7-1.4,8.6-2.8c0.7-0.7,0.5-2,0.2-3.4c-13.8-3.6-22.5-8-33.5-12.2l29.7,7.1
	C104.6,52.1,102.9,57,115.5,80.6L115.5,80.6z"/>
<path class="st2" d="M125.2,74.5c-6.7-9.5-13.1-21.1-21.9-28.4c-21.2-9.6-42.1-16.7-66.7-23.1l7.8-10.1c26.1,6,50.6,15.9,72.5,32.3
	C120.6,54.5,123.1,63.9,125.2,74.5L125.2,74.5z M138.6,57.6c0,0-3.7-8.4-5.6-11.6c-4.2-4.7-6.4-13.4-15-17.5
	c2.7,0.7,4.6-0.1,10.2,4.9l8.8,16.7L138.6,57.6z"/>
<path class="st2" d="M143.3,72.2c0.9-7.3,2.5-18.9,0.6-23.5c-5.2-7-10.5-14.3-15.8-21c-0.9-0.8-1.5-1.9-2.2-2.8
	c7.4,1.9,15.1,7.1,25.5,27.4L143.3,72.2z"/>
<path d="M112.1,73c-2.9-2.3-5.6-10.5-10-12.2c-4.1-0.3-5.7-1.6-11.1-0.5c2-1,3.8-2.3,5.9-2.9c1.4-0.3,2.8,0,4.1,0.2
	c0.3-0.2,0.6-0.4,0.5-0.7c-5.5-3.4-16.7-3.4-24.3-5.4c8.8,0.3,18.5-0.2,25.1,1.9C107.7,58.2,109.4,67.1,112.1,73L112.1,73z
	 M128.3,33.4c1.2,0.1,7.8,10.5,8.1,12.2c0.5,3.8,1.9,8,2.3,12c-1.1-3.8-2.3-7.6-3.7-11.4c-0.4-1-1.5-3.4-4.5-6.7
	C128.9,37.2,128.6,35.3,128.3,33.4L128.3,33.4z M150.5,90h-2.8l3.1,0.8L150.5,90z M131.4,87.2c-2.8-0.3-5.7-0.4-8.6,0.2
	c-1.2,1.5-1.2,3.1-1.7,4.6C124.5,88.2,125.9,88,131.4,87.2L131.4,87.2z M169.9,106.8c-1.6,1.3-1.7,2.4-6.4,3.9
	c-3.4,0.8-5.3-0.6-6.9-2.4c2.4,0.7,2.8,2.5,9.3,0.5L169.9,106.8z M155.8,107.6c-1.1,3.1-2.4,6.3-3.6,9.2c-2.9,3.4-1.7,1.5-6.1,6.8
	c1.4-2.2,3.2-4.2,4.2-6.5c0.7-1.5,1.5-3.1,1.9-4.4c-1.2-0.6-3.5-0.6-3.9-0.4c-3.9,2.3-4.6,4.7-6.9,7.1c1.7-2.7,3.1-5.6,5-8
	c0.2-0.3,1.7-0.4,2.5-0.6c-1.4-0.2-3.9-0.7-4.1-0.7c-2.5,0.6-4,2.8-5.9,4.3c1.4-2,2.6-4.1,4.4-5.8c0.2-0.2,4.9,0.2,7.3,1.2l0,1
	l1.4,0.6l1-2.6L155.8,107.6z M125,126.3c-0.6-0.2-6.2-0.9-6.2-0.8c-2.1,1.5-2.5,3-2.4,4.2C119.9,126.3,119.8,126.3,125,126.3
	L125,126.3z M120.7,101.3c0,0,4-0.6,3.9-0.2c-0.3,1.4,0.5,4.8,0.6,4.3l-2.2,1.8c4.7-2.4,9.7-1.9,14.7-2.3c0,0-4.2-1.2-4-1.2
	c0.9-0.1-0.3-4.4-0.6-4.5c0.8-0.3,1.6-0.5,2.4-0.7C129.5,97,126,97.9,120.7,101.3L120.7,101.3z"/>
<path d="M155.4,104.3l-0.9,0.4c-0.1-2.6-2.9-2.4-5.3-2.4l-1.9-0.5c0.6,0.5,2.4,0.5,1.7,1.7c-0.6,0.3-0.9,1.7-1.3,2.9l-1,0.1
	c1.8,0.7,3.6,1.4,5.6,2.2l1.2,0.2l2.9-1.5L155.4,104.3z"/>
<path class="st3" d="M128.8,102.5c-0.5-0.9-2.7-0.8-3.2-0.2c-0.4,0.5,0,3.5,0.5,3c0.7-0.6,1.7-0.9,2.9-0.9
	C129.1,103.9,129.1,103.3,128.8,102.5L128.8,102.5z M150.6,107c0.2-0.2,0.7-1.7,0.5-2.1c-0.3-1.1-2.4-0.8-2.4-0.8
	c-0.5,0.3-1,2-0.8,2.5C148,107,150.2,107.1,150.6,107L150.6,107z"/>
<path d="M60.5,159l1.3,0.1c7.9,3.9,20.9,9.6,39.7,6.5l3,4.6c-8.3,4-17.2,3.1-25.5,3.4L60.5,159z M49.2,128.3l4,16.6
	c10.6,6.6,28.6,14.2,43.7,13.6l-3.3-7.6C62.1,144.2,59.4,135.7,49.2,128.3L49.2,128.3z M59,94.4c1.9,12.9,4.5,22.6,15.7,30.8
	c6.9,4.9,13.7,9.8,21.9,13.9c0,0-0.7,3.8-1.3,3.7c-24.6-2.7-42.6-23.1-44.8-32.5C52.6,103.1,55.6,98.6,59,94.4L59,94.4z M70.8,87.1
	c3.3,14.2,11.1,28.7,18.9,41.8c2.8,3.6,3.6,5.2,8,7.4c5.9,1.9,10.1,1.4,14.4,1.1c-1.2-2.2-2.2-4.5-3.6-6.5c-9.6-7.6-5.2-14.6-2.6-19
	c-5.4-1.4-12.5-4.2-13.5-8c-1.6-12.3-0.8-16.1,0.8-22.4C86,82.9,78.7,84.4,70.8,87.1L70.8,87.1z"/>
<path d="M44.2,11.4c-2.4,1.6-4.7,3.8-7.2,6.3c-4.1,4.2-6.8,8.4-11,11.5c-0.8,0.7-3.2,1.9-6.1,2.1c-1.4,0.1-2.3,0.3-4.8,0
	c-2.2-1.2-4.4-0.4-6.5,2.1c-2.3,3.3-5.2,9.5-6.4,13.5C-0.3,56.8,6,65,12.1,71.4c5.4,5.3,8.5,8.6,10.7,13.4c1.7,3.1,2.9,7.4,4.3,10.5
	c0.5,1,0.4,1,1.7,1.2c2.8,0.6,6.7,0.6,10.2,0.9c1.5,0,3.6,0,5.5-0.2c2.7-0.5,5.9-1,8.5-1.9c2.6-0.6,4.9-1.5,7-2.3
	c-0.3,0.9-2.3,1.8-3,3c-7.1,10.1-9,19.2-7.8,33.4c0.7,6.3,2.1,11.5,4.3,17.5c1,2.7,3.1,7.1,5.2,10c6.1,8.6,19.6,19.6,38.5,23.8
	c3.3,0.4,7,0.2,10.5-0.7c9.3-2.8,28.3-9.5,28.3-9.5s-16.9,1.4-24.6,0.6c-1.8-0.3-3.8-0.4-5-1.6c-0.2-0.3-1-1.8-0.5-1.8
	c0.7,0,2.6-0.8,5.5-1.1c-6.3-0.7-6.2-0.7-6.7-1.8c-0.7-1.8-1.8-4.2-2.9-6.4c2.8,0.2,8.9,0.6,11-1.6c0,0-3.6,0.4-6.9,0
	c-1.1-0.1-2.9-0.8-3.5-1c-1.4-0.6-2.6-0.7-2.9-1.1c-0.5-1.3-0.8-1.7-1.4-3.4c-0.8-2.3-0.9-4.8-1-7.1c2.1,2.6,4.8,4.8,8.3,5.9
	c0-0.1,4.6,2,7.9,0.9l0.7-0.2c0,0.1-2.2,0.2-3-0.2c-6.7-2.9-7.7-5.4-8.8-6.6l-2.9-4.4c0.9-1.8,1.4-1.8,2.6-1.8
	c3.5,0.4,5.1,0.7,7.2,0.2c1.5,3,1.9,6,5.2,8.2c11.1,3.3,13.5-1,16.1-4.7c8,5.8,20.9,7.6,29.9,0.1c11.4-13.2,15.1-34.1,14-35.3
	c-1.4-2.4-3.3-4.9-4.9-4.6c-5.7,1.6-7.8,4.5-13.5,3.8c0.7,0,1.8-0.1,1.8-0.1c0.4-4.8,0-7.1-0.2-7.5c-1.7-3.8-4-7.8-5.6-10.8
	c-0.4-0.6-1.6-5.3-3.6-7.2c-0.9-0.7-3-2.7-3-2.7l-0.2,2.1c0,0,0.8,0.1,1.1,1.4c1.2,4.8,7.2,16.2,7.7,16.8c2.1,3.5,0.2,7.8,1.8,10.2
	c0.2,0.3,3.3,0,5.8,0.1c4-0.9,3.9-2.6,7.3-2.9c2.3-0.2,2.6,4.2,2.5,4.6c-0.4,4.9-1.9,10.5-4.2,15.7c-4.7,9.1-10,17.2-17.5,18.3
	c-9.1,1.6-13.9-2.4-18.8-4.9l-1.9,1.6c-6.4,6.4-14.1,5.8-17.2-2.5c-1.6-3.2-3.6-5.2-5.3-8l-9.2,6.6c-0.8,1.6-1.7,4-2.8,6.8
	c-0.8,1.9-1.5,5.2-1.4,8c-1.2,2,4.1,10.1,7.4,15.1c1,1.5,2.8,4,2.9,4.2c0.7,1.7,2.1,3.2,2.2,3.4c6.2,8-7.8,6.2-10.7,5.7
	c-5.7-0.9-11.2-3.3-16.5-6.5c-0.3-0.2-0.6-0.4-0.9-0.6c-6.2-3.9-11.9-8.9-16.8-13.9c-2.9-3.3-5.7-10-7.7-14.8
	c-3.1-11.5-7.4-31.3,4.4-46.4c0.8-0.9,1.6-2.3,2.3-2.6c3.5-2.4,7.4-4,11.5-4.9l-0.4-2.7c-2.1,0.5-9,3-10.9,4.1
	c-4.5,1.3-8.1,2.6-13.8,4.1c-1.8,0.2-3.7,0.2-5.4,0c-4.1-0.6-11-0.1-11.5-0.5c-2.8-3.9-3.5-10.8-6-14.5l0,0l0,0
	c-1.5-2-3.2-3.6-4.9-5.3c-6-6-11.2-11.8-12.7-18C5.4,55,4.5,53.1,5,47.7l0,0l0,0c1.5-5,3.8-9.1,7.8-13.2c4.2,0.1,8.3,0.2,11.5,0.8
	c1.5,0.2,4.6,0.6,7.7,1.8c8,3,18.7,7.9,18.7,7.9c-8-4.4-16.9-10.1-22.5-11.2c-0.8-0.1-1.4-0.5-1.6-1.2c8.5-5,10-10.8,15.6-16.1
	c2.5-1.1,3.5-1.7,5.7-1.9c20,3.2,32.6,11.1,42.5,16.4c4,2.2,7.7,3.9,11.2,5.9c3.1,1,12.4,8,15.1,11.8c2.8,5.8,4.8,12.1,6.6,18.2
	c1.3,6.2,2.5,8.7,2.5,8.7s-1.1-5.2-0.9-6.1c1.2,0.4,3.9,1.3,5,1.2c0,0-5.1-2.6-5.7-4.9c-2.1-7.5-4.3-19-4.9-19.7
	c-1.6-2-8.4-7.2-12.6-9.7c-1.6-0.9-2.4-1.5-2.5-1.9c1.3-1.3,3-3.1,4.4-4.3c1.4-1.1,2.7-2.3,4.7-3c8.7-3.9,13.6,1.5,14.8,0.4
	c0,0-1.9-2.1-1-1.8c0.8,0.5,3.6,1,3.9,1.3c3.2,2.5,11.4,11.5,16.4,21c1.2,2.3,1.7,3.9,1.1,6.7c-0.6,2.8-1,4.4-1.6,6.2
	c-0.5,1.3-3.6,9.8-3.6,11c-0.6,4.7,2,10.6,2,10.6c0-1.6-0.1-2.5,0-3.6l0.2-2c0,0-0.1-0.5-0.1-0.8c0.1-1.4,0.5-2.6,0.6-3.4
	c1-6.2,2.7-10.6,4.7-16c0.6-1.4,1.3-2.1,1.3-3.2c0-1.8-1.6-4.3-2.8-6.7c-1.2-2.4-2.6-5.2-4.5-8c-4.3-6.2-8-11-14.7-14
	c-1.9-0.8-9.3-1.6-11.8-1.1c-3.1,0.6-5.8,1.3-7.9,2.6c-3.3,2.1-6,5.4-9,7.4c-6.8-3.4-10.1-5.9-10.7-6.3c-4-2.2-8.9-4.7-14.1-7.1
	C74,18.1,58.4,12.5,44.2,11.4L44.2,11.4z M131.2,138.3c-4.2-3.3-7.7-6.7-10-10.1c-0.8,4.1-3.5,7-5.6,9.9c-0.4,0.7-0.7,1.6,1.4,4.5
	c0.6,0.8,2.6,0.9,4,0.8c-1.4-1.1-3.5-2.2-3.9-3.1c2.5,1.7,4.7,2.2,6.8,1.9c0.5-0.1,1.1-0.6,1.5-1.3c0.9-2,1.6-2.4,2.4-3l1.7,2.1
	L131.2,138.3z"/>
</svg>
