<?xml version="1.0" encoding="utf-8"?>
<!-- Generator: Adobe Illustrator 22.1.0, SVG Export Plug-In . SVG Version: 6.00 Build 0)  -->
<svg version="1.1" id="图层_1" xmlns="http://www.w3.org/2000/svg" xmlns:xlink="http://www.w3.org/1999/xlink" x="0px" y="0px"
	 viewBox="0 0 200 200" style="enable-background:new 0 0 200 200;" xml:space="preserve">
<style type="text/css">
	.st0{fill:#2287B6;}
</style>
<path class="st0" d="M92.7,50L92.7,50L92.7,50z M165.3,108.8c2.6,1.9,4.7,3.3,4.7,3.3S167.9,110.5,165.3,108.8z M79.4,75.5
	L79.4,75.5L79.4,75.5C79.5,75.6,79.4,75.5,79.4,75.5z M194.2,69.3c3.6-3.6,5.6-6.6,5.6-6.6s-11,12.7-19.9,11.2
	c6.7-5.4,11.5-14.3,11.5-14.3l-0.3,0.3c1-1.6,1.6-2.7,1.6-2.7s-14.6,15.1-25.4,14c4.5-4.3,7.7-9.6,9.7-13.5c2.5-4.4,3.7-7.9,3.7-7.9
	s-11,17-18.9,19.8c3.5-3.8,6-8,7.7-11.2c2.5-4.4,3.6-7.8,3.6-7.8s-9,13.2-16.7,15.8c4.1-4.2,6.2-7.5,7.2-9.7
	c2.2-3.6,2.3-5.6,2.3-5.6s-13.9,17.9-20.2,16.4c5.2-6.2,8.8-13,9.8-14.9c1-1.8,1.6-2.9,1.6-2.9s-12.4,16.8-15.7,14.1
	c-0.7-0.1-0.6-0.8-0.2-1.8c1.2-1.9,2.7-3.8,2.7-3.8s-0.5,0.4-1.2,1c1.2-1.8,2.4-3.4,2.4-3.4s-5.7,5.1-8.6,5.3
	c3.6-4,7.9-11.5,7.9-11.5s-0.2,0.2-0.5,0.5c1.1-1.7,1.8-2.9,1.8-2.9S133.3,61.7,130.1,60l6.1-12.3c0,0-5.9,11.9-13.9,10.3
	c0.9-1.3,1.7-2.7,2.4-4.1c1.8-3,2.5-5.2,2.5-5.2s-6.3,10.1-14,7.4c-0.5-0.2-0.5-0.6-0.4-1.1c0.7-1,1.4-1.8,1.4-1.8s-0.4,0.4-1.1,0.9
	c0.8-1.5,2.4-3.3,2.4-3.3s-5.2,5.1-8.8,4.4c-3.6-0.6,0.2-7.1,0.2-7.1s-6.3,9.9-7.6,9.4c-1.3-0.4,0.6-6.9,0.6-6.9s-4.6,7.6-7.1,7.1
	c-2.4-0.4-0.2-7.3,0-7.7c-0.1,0.3-0.9,2.6-1.9,4.6c0.2-0.7,0.4-1.5,0.6-2.2c0,0.1-0.6,1.9-1.4,3.6c-0.7,1-1.4,1.7-2.1,1.5
	c-2.1-0.6-2.5-5.5-2.5-5.5s-0.2,2.3-1,4.2c-0.2-1-0.3-1.9-0.3-1.9s-0.2,2-0.8,3.9c-0.4,0.5-0.9,0.8-1.5,0.9
	c-22.7,4.4-47.6,14.1-78.9,45.3c0.9-0.5,1.8-1,2.7-1.5c-1.3,1.3-2.7,2.6-4,3.9C23.4,95.2,35.5,79.4,62.4,71
	c-0.8,1.6-1.2,3.5-1.2,5.6c0,13.5,8.1,25.1,19.6,30.3c0,0,0-0.1,0-0.1c-1.9-1.9-3.6-4.1-4.8-6.6c-0.2,0-0.5,0.1-0.7,0.1
	c-2.6,0-4.8-2.1-4.8-4.8c0-1.9,1.1-3.5,2.7-4.3c-0.4-3-0.2-6,0.4-9c0.2-0.9,0.4-1.7,0.7-2.5c-2.2-3.2-3.7-6.9-4.3-10.7
	c0.3-0.1,0.7-0.2,1-0.2c1,3,2.4,5.8,4.3,8.4c0.9-2,2-3.8,3.3-5.5c-0.2-0.4-0.2-0.8-0.2-1.3c0-1.6,1-2.9,2.4-3.4
	c0.5-0.1,0.9-0.1,1.4-0.2c0.4,0,0.8,0.1,1.1,0.2c0.2-0.2,0.4-0.3,0.7-0.5c2-0.2,4-0.4,6-0.6c-1.6,0.9-3.2,1.9-4.6,3
	c0.2,0.4,0.3,0.9,0.3,1.4c0,0.6-0.1,1.1-0.4,1.6l7.2,5.2c0.1-0.1,0.2-0.1,0.3-0.2l-2.9-10.3l5.2,9.2c0.2-0.1,0.4-0.1,0.5-0.2
	l-0.2-10.1c0,0,0,0,0,0l3.3,9.6l4-9.6l0.1,10.5c0,0,0.1,0,0.1,0.1l5.9-8.3l-3,10.1c0,0,0.1,0.1,0.1,0.1l8.6-5.7l-6.3,8.7
	c0,0,0,0,0,0.1l7.9-2.8c0.1-0.1,0.2-0.2,0.3-0.4c-0.5-0.6-0.8-1.3-0.8-2.1c0-1.8,1.5-3.3,3.3-3.3c0.3,0,0.5,0,0.7,0.1
	c0.9-1.9,1.6-3.8,2.1-5.8c0.2,0,0.5,0.1,0.7,0.1c-0.2,2.2-0.6,4.4-1.3,6.5c0.7,0.6,1.1,1.5,1.1,2.4c0,1.8-1.5,3.3-3.3,3.3
	c-0.2,0-0.4,0-0.5-0.1c-1.2,1.9-2.7,3.7-4.4,5.3l5.4,0.3l-8.1,1.9c-0.3,0.2-0.5,0.4-0.8,0.5c4.7,0.7,9.1,2.7,12.8,5.7
	c2.7-4.8,4.2-10.3,4.2-16.1c0-4.2-1.7-7.3-4.4-9.6c21.9,3.9,34.6,13.3,40.9,15.8c-1.2,0.4-2.3,1.3-2.9,3
	c-9.8,18.6-30.2,29-54.2,32.4c-23.9,3.5-41.6-1.6-56-5.6c-19-5.4-34.2,4.2-50.7-4.1c2.3,1.8,4.8,3.6,9.2,4.8
	c-2.8-0.5-5.7-1.4-8.6-2.9c3.8,3,8.2,6,20.8,6c4.1,0,16.8-0.6,20.1,1.3c-1,3.7-8.8,11-8.8,11s3.5-3,7.7-5.9c-2.6,3.6-7,7.8-7,7.8
	s16.4-13.9,19.9-11.1c-0.2,3.9-5.5,11.1-5.5,11.1s2.3-3.2,5.3-6.1c-1.5,3.7-4.6,8-4.6,8s6.5-8.8,11.3-10.7c3.1-1.2,5.7-1.1,8,1.5
	c-0.7,3.5-7.7,11.7-7.7,11.7s3.1-3,6.5-6c-2.3,3.7-5.9,7.9-5.9,7.9s12.3-12,14.5-11.3c0.1,0,0.2,0.1,0.3,0.2
	c0.3,3.3-0.9,9.3-0.9,9.3s0.6-1.4,1.4-3.2c-0.3,2.6-0.8,5.1-0.8,5.1s4.4-10.5,6.8-11.6c-0.9,5.9-8.1,23.3-8.1,23.3s2-3.6,4.5-8.1
	c-1.3,3.3-2.6,6.7-3.9,10c0,0,13.3-24.3,15.7-24.9c1.6-0.4,3.1,2.1,4.2,5.2c1.4,4.7,2.3,9.9,2.3,9.9s-0.2-1.3-0.4-3.2
	c0.6,2.8,1,5.1,1,5.1s-2.1-15.7,0.2-16.7c3.8-1.7,6-0.6,7.1,2c1.9,8-1.8,23.1-1.8,23.1s1-2.4,2.1-5.9c-0.7,4.4-1.5,7.7-1.5,7.7
	s8-19.7,4.5-26.5c0-0.2-0.1-0.5-0.2-0.7c5.5,3.9,8.6,8.9,10.3,13.6c1.9,6.4,1.4,11.7,1.4,11.7s0.4-0.9,0.6-2.7c0.2,2.8,0,4.6,0,4.6
	s2.4-5.3-1.9-17.7c-1-3.3-2.6-7.2-4.8-11.6c6,0.3,14.6,15.5,14.6,15.5s-1.2-2.1-2.5-4.9c1.1,1.8,1.8,3,1.8,3s-2.5-4.4-4.1-8.8
	c-1.1-3.6-1.2-6.8,1.6-6.9c6.3-0.3,9.9,5,11.9,10.6c1.6,5.4,1.9,10.5,1.9,10.5s0.2-0.2,0.4-0.6c0.2,1.6,0.3,2.5,0.3,2.5
	s2.5-2.1-1.9-14.9c-1-3.1-2.4-6.9-4.5-11.7c6.8-3.8,22.8,21.5,22.8,21.5s-1.7-2.8-3.9-6.7c2,2.8,3.2,4.8,3.2,4.8s-9.1-15.2-12-22.7
	c-0.3-1.1-0.3-1.9,0-2.1c2.4-1.7,11.2,8,11.2,8s-1.4-1.9-2.7-4c1.2,1.2,2.1,2.2,2.1,2.2s-3.2-4.4-4.6-7.4c-0.1-0.4,0-0.7,0.3-0.9
	c1.8-0.9,19.6,18.4,19.6,18.4s-2.7-3.3-5.7-7.3c2.9,3,5.1,5.4,5.1,5.4s-9.9-11.9-12.6-18c-0.1-0.6,0-1.1,0.3-1.3
	c1.6-1.3,6,1,9.6,3.3c-2-1.5-4.4-3.2-6.3-4.9c1.8,0.7,3.9,1.9,5.7,3c-3.4-2.4-7.6-5.7-9.3-7.9c0.1-0.1,0.2-0.3,0.4-0.4
	c4.8-2.5,18.6,6,18.6,6s-2.3-1.9-4.3-4c2.2,1.2,3.7,2.1,3.7,2.1s-4.6-3.8-6.4-6.4c0-0.1,0.1-0.1,0.1-0.2
	c1.4-1.7,17.6,10.7,17.6,10.7s-6.1-4.8-10.6-9c4.8,3.1,10,7.1,10,7.1s-11.3-8.9-14.4-12.9c1.3-1.5,11.2,1.6,11.2,1.6
	s-3.6-1.7-7.1-3.5c3.1,0.6,6.4,1.6,6.4,1.6s-8.8-4.1-12.2-6.6c2.1,0,8.1,2.5,8.1,2.5s-2.9-2.4-6.2-3.9c2.5,0.7,5.6,2,5.6,2
	s-3.4-2.8-7.2-4.3c18-1,29.2-18.2,29.2-18.2S196.8,67.1,194.2,69.3L194.2,69.3z M91.5,52.3L91.5,52.3L91.5,52.3z M165.9,110.7
	c2.6,1.9,4.7,3.3,4.7,3.3S168.5,112.4,165.9,110.7z M90.3,79L85,72.3c-0.7,0.9-1.7,1.5-3,1.5c-0.4,0-0.9-0.1-1.3-0.2
	c-0.5,0.6-0.9,1.3-1.3,1.9L90,79.4C90.1,79.3,90.2,79.1,90.3,79z M84.2,98.8l-2.4,1.9l7.1-9L80,95c0,0.1,0,0.3,0,0.4
	c0,1.4-0.6,2.6-1.5,3.5c0.9,1.8,1.9,3.5,3.1,5.1C82.2,102.2,83.1,100.5,84.2,98.8L84.2,98.8z M76.5,82.8c-0.6,2.7-0.7,5.3-0.4,8
	c2,0.4,3.5,1.9,3.8,3.9l7.7-4.9c-0.7-0.2-1.4-0.5-2.2-0.8l-8.7-0.6l5.3-1.1c-2-1.3-3.9-2.8-5.5-4.6C76.6,82.6,76.5,82.7,76.5,82.8z
	 M88.4,82.2l-9-6.6c-0.8,1.3-1.5,2.6-2,4.1c1,1,2,2,3.1,2.9L88.4,82.2L88.4,82.2z M82.9,84.2c-0.8-0.5-1.6-1.1-2.3-1.7l-3.7,0.1
	L82.9,84.2z M94.2,96.1l-6.7,9.5l2.5-9.3c-2.9,2.8-5.1,6.2-6.6,10c0.8,0.9,1.6,1.7,2.5,2.4c2.7,0.7,5.6,1.1,8.4,1.1
	c11.7,0,21.9-6,27.8-15.1c-3.1-2.2-6.6-3.7-10.3-4.5l-2.7-0.2l7.6,7.5l-10-3.9l5.9,9l-8.8-6.8c-0.1,0-0.1,0.1-0.2,0.1l2.9,10.5
	l-5-9.4l-0.8,11.1l-3.3-11c0,0,0,0,0,0l-3.9,10.4l0.9-11.2C94.4,96.1,94.3,96.1,94.2,96.1L94.2,96.1z"/>
</svg>
