<?xml version="1.0" encoding="utf-8"?>
<!-- Generator: Adobe Illustrator 22.1.0, SVG Export Plug-In . SVG Version: 6.00 Build 0)  -->
<svg version="1.1" id="图层_1" xmlns="http://www.w3.org/2000/svg" xmlns:xlink="http://www.w3.org/1999/xlink" x="0px" y="0px"
	 viewBox="0 0 200 200" style="enable-background:new 0 0 200 200;" xml:space="preserve">
<style type="text/css">
	.st0{fill:#E32515;}
</style>
<path class="st0" d="M30.3,65.8l-17.1,5.7V44.4h11.3v13.5L30.3,65.8z M71.7,44.4H47.9L48,59.6L71.7,44.4z M187,79.2V44.4h-69.6l3,7
	h-12.5v5.3l-6.3-5.3H85.7L69.1,68.4l11.1,14.6l36-13.7l33.1,26.9l18.3,4.5l2.8,7.2l-32.4,2.9l-1.7-4.5l-4.4,1.7l-18-15.2l-33.1,21.5
	l5.2,41.3h114V79.2L187,79.2L187,79.2z M60.5,148.1l-8.4-34.9l-6.2-1.7L29,86.2l-9.1,0v7.4l-4-3.1v10.8l-9.3-4v-18H0.2v76.3h65.7
	l-1-5.6L60.5,148.1L60.5,148.1z"/>
</svg>
