<?xml version="1.0" encoding="utf-8"?>
<!-- Generator: Adobe Illustrator 22.1.0, SVG Export Plug-In . SVG Version: 6.00 Build 0)  -->
<svg version="1.1" id="图层_1" xmlns="http://www.w3.org/2000/svg" xmlns:xlink="http://www.w3.org/1999/xlink" x="0px" y="0px"
	 viewBox="0 0 200 200" style="enable-background:new 0 0 200 200;" xml:space="preserve">
<style type="text/css">
	.st0{fill:#40A7FF;}
</style>
<path class="st0" d="M42.3,72.9V33.6c0-9.9,8.1-18,18-18h100.6l36.1,37V154c0,2.7-1.8,4.5-4.5,4.5s-4.5-1.8-4.5-4.5V61.6h-22.6
	c-7.7,0-13.5-5.9-13.5-13.5V24.6H60.3c-5,0-9,4.1-9,9v39.3h100.6c5,0,9,4.1,9,9V145c0,5-4.1,9-9,9H51.3v13.5c0,5,4.1,9,9,9H179
	c5,0,9-4.1,9-9v-13.5c0-2.7,1.8-4.5,4.5-4.5s4.5,1.8,4.5,4.5v13.5c0,9.9-8.1,18-18,18H60.3c-9.9,0-18-8.1-18-18v-13.5H12
	c-5,0-9-4.1-9-9V81.9c0-5,4.1-9,9-9H42.3z M160.9,28.2V48c0,2.3,1.8,4.5,4.5,4.5h18.9L160.9,28.2L160.9,28.2z M56.7,105.3
	c-3.2-8.6-9-12.6-18.5-13.1c-13.1,0.9-19.9,8.1-20.8,22.6c0.5,14.4,7.7,22.1,20.8,22.6c10.4,0,17.1-5,19.4-14.9l-8.1-2.7
	c-0.9,7.2-5,10.4-10.8,10.4c-7.7-0.5-11.7-5.9-12.2-15.8c0.5-9.9,4.5-14.9,12.2-15.3c5.4,0.5,9,3.2,10.4,8.1L56.7,105.3z
	 M62.6,122.9c2.3,9.9,8.6,14.4,19.9,14.4s16.7-4.5,17.1-13.1c0-5.4-3.2-9-9-11.7l-8.1-2.7c-6.3-1.4-9.5-3.6-9-6.3
	c0.5-3.6,3.2-5,7.7-5.4c5.4,0,8.6,2.3,9.5,7.2l8.1-1.8c-1.4-8.1-7.7-12.6-18-12.2c-9.9,0.5-15.3,4.5-15.8,11.7
	c-0.5,6.3,3.6,10.4,12.6,12.6c2.3,0.5,4.5,0.9,6.8,1.8c5,1.4,7.2,3.6,6.8,6.8c-0.5,4.1-3.2,5.9-8.6,6.3c-6.3,0-10.4-3.2-11.3-9.9
	L62.6,122.9L62.6,122.9z M146.5,92.7h-9l-10.8,32c-0.9,2.7-1.4,4.1-1.4,4.5c0-0.9-0.5-2.3-1.4-4.5l-11.3-32.5h-9l17.1,43.8h9.5
	L146.5,92.7L146.5,92.7z"/>
</svg>
