<?xml version="1.0" encoding="utf-8"?>
<!-- Generator: Adobe Illustrator 22.1.0, SVG Export Plug-In . SVG Version: 6.00 Build 0)  -->
<svg version="1.1" id="图层_1" xmlns="http://www.w3.org/2000/svg" xmlns:xlink="http://www.w3.org/1999/xlink" x="0px" y="0px"
	 viewBox="0 0 200 200" style="enable-background:new 0 0 200 200;" xml:space="preserve">
<style type="text/css">
	.st0{fill:#59BFE4;}
</style>
<path class="st0" d="M35,183.9v-54.6h17.8c18.3,0,27.4,8.9,27.4,26.6c0,8.4-2.5,15.2-7.7,20.3c-5.1,5.1-11.7,7.7-19.8,7.7L35,183.9
	C35,184,35,183.9,35,183.9z M46,138.8v35.6h6c5.2,0,9.3-1.7,12.3-4.9c3-3.3,4.5-7.7,4.5-13.3c0-5.4-1.6-9.7-4.6-12.7
	c-3.1-3.1-7.1-4.6-12.1-4.6L46,138.8L46,138.8z M88.8,183.9v-54.6h18.3c5.6,0,9.9,1.1,13,3.4c3.1,2.3,4.5,5.4,4.5,9.4
	c0,3-1,5.6-2.8,7.8c-1.9,2.2-4.2,3.8-7.1,4.6v0.2c3.6,0.5,6.5,1.9,8.7,4.2c2.2,2.4,3.3,5.3,3.3,8.8c0,5-1.7,8.9-5,11.8
	c-3.3,2.9-7.9,4.4-13.6,4.4L88.8,183.9L88.8,183.9L88.8,183.9z M99.8,138v13.5h5.2c2.5,0,4.5-0.6,5.9-1.9c1.5-1.3,2.2-3.1,2.2-5.3
	c0-4.2-2.9-6.3-8.6-6.3L99.8,138L99.8,138z M99.8,160.3v15h6.5c2.8,0,4.9-0.7,6.5-2s2.3-3.2,2.3-5.7c0-2.3-0.8-4.1-2.3-5.4
	c-1.6-1.3-3.8-1.9-6.6-1.9L99.8,160.3L99.8,160.3z M145.3,174.5h21.8v9.5h-34.2v-4.1c0-2.9,0.5-5.5,1.5-7.8c1-2.3,2.3-4.6,4.1-6.6
	c1.7-2,4.4-4.4,8-7.1c3.3-2.6,5.6-5,7-7c1.3-2,2-4.2,2-6.5c0-4.9-2.5-7.4-7.6-7.4c-4.4,0-8.6,1.9-12.7,5.6v-10.2
	c4.5-3.1,9.5-4.6,15.2-4.6c5.1,0,9.2,1.4,12.2,4.2s4.5,6.6,4.5,11.5c0,2.7-0.4,5.2-1.3,7.4c-0.8,2.2-2.1,4.2-3.8,6.2
	c-1.6,1.9-4.2,4.2-7.9,7c-3.5,2.6-5.8,4.7-7,6.1C146,172.2,145.3,173.4,145.3,174.5L145.3,174.5z"/>
<path class="st0" d="M1.6,24.2h38.3V30H1.6V24.2z M45.3,24.2V30h54.6c0,0-5.7-5.7-12.9-5.7H45.3z M110.8,24.2V30h33.1l-1.9-5.8
	H110.8z M198.5,24.2h-30.9l-1.9,5.8h32.8V24.2z M1.6,35.5h38.3v5.7H1.6V35.5z M45.3,41.3h61.2c0,0-0.6-4.6-2-5.7H45.3V41.3z
	 M110.8,41.3h36.8l-1.7-5.8h-35.2V41.3z M198.5,41.3v-5.8h-34.8l-1.7,5.8H198.5z M12.7,46.4h16.6v5.7H12.7V46.4z M56.5,46.4H73v5.7
	H56.5V46.4z M89.3,52.2h16.6c0,0,1.1-3.1,1.1-5.7H89.3L89.3,52.2C89.3,52.2,89.3,52.2,89.3,52.2z M122,46.4v5.7h29.4l-1.9-5.7H122z
	 M158.3,52.2H188v-5.7h-27.8L158.3,52.2z M12.7,57.6h16.6v5.7H12.7V57.6z M56.5,63.4h42.6c0,0,3.4-3.1,4.6-5.7H56.5V63.4z
	 M154.8,62.5l-1.4-4.9H122v5.7h16.6v-3.3l1.1,3.3h30.6l1.1-3.3v3.3H188v-5.7h-31.5L154.8,62.5z M12.7,68.8h16.6v5.7H12.7V68.8z
	 M56.5,74.6h47.2c-1.1-2.7-4.6-5.7-4.6-5.7H56.5V74.6z M122,68.8h16.6v5.7H122V68.8z M168.5,68.8h-26.9l2,5.8h22.9L168.5,68.8z
	 M171.1,68.8h16.6v5.7h-16.6V68.8z M12.7,80.1h16.6v5.7H12.7V80.1z M56.5,80.1H73v5.7H56.5V80.1z M105.9,80.1H89.3v5.7h17.7
	C107.1,83.1,105.9,80.1,105.9,80.1z M122,80.1h16.6v5.7H122V80.1z M164.8,80.1h-19.4l2,5.8h15.4L164.8,80.1z M171.1,80.1h16.6v5.7
	h-16.6V80.1z M1.8,91h38.3v5.7H1.8V91z M106.5,91H45.3v5.7h59.2C105.6,95.5,106.5,91,106.5,91z M111.1,91h27.4v5.7h-27.4V91z
	 M160.8,91h-11.7l2,5.7h7.7L160.8,91z M171.1,91h27.7v5.7h-27.7V91z M1.8,102.2h38.3v5.7H1.8V102.2z M99.9,102.2H45.3v5.7h41.8
	C94.5,108,99.9,102.2,99.9,102.2z M111.1,102.2h27.4v5.7h-27.4V102.2z M155.1,108l2.1-5.7h-4.4l2.1,5.7H155.1z M171.1,102.2h27.7
	v5.7h-27.7V102.2z"/>
</svg>
