<?xml version="1.0" encoding="utf-8"?>
<!-- Generator: Adobe Illustrator 22.1.0, SVG Export Plug-In . SVG Version: 6.00 Build 0)  -->
<svg version="1.1" id="Layer_1" xmlns="http://www.w3.org/2000/svg" xmlns:xlink="http://www.w3.org/1999/xlink" x="0px" y="0px"
	 viewBox="0 0 200 200" style="enable-background:new 0 0 200 200;" xml:space="preserve">
<style type="text/css">
	.st0{clip-path:url(#SVGID_2_);fill:#F0BF1A;}
	.st1{clip-path:url(#SVGID_4_);fill:#3EBEB0;}
	.st2{clip-path:url(#SVGID_6_);fill:#07A5DE;}
	.st3{clip-path:url(#SVGID_8_);fill:#231F20;}
	.st4{fill:#D7A229;}
	.st5{fill:#019B8F;}
</style>
<g>
	<g>
		<g>
			<g>
				<g>
					<g>
						<defs>
							<circle id="SVGID_1_" cx="100" cy="100" r="97"/>
						</defs>
						<clipPath id="SVGID_2_">
							<use xlink:href="#SVGID_1_"  style="overflow:visible;"/>
						</clipPath>
						<path class="st0" d="M141.5,57.6H9.1c-3.3,0-6.1-2.7-6.1-6.1V9.1C3,5.7,5.7,3,9.1,3h172.8c3.3,0,6.1,2.7,6.1,6.1v2.1
							C187.6,36.6,167,57.6,141.5,57.6z"/>
					</g>
				</g>
			</g>
			<g>
				<g>
					<g>
						<defs>
							<circle id="SVGID_3_" cx="100" cy="100" r="97"/>
						</defs>
						<clipPath id="SVGID_4_">
							<use xlink:href="#SVGID_3_"  style="overflow:visible;"/>
						</clipPath>
						<path class="st1" d="M188.2,197H3.6l0,0v-54.6l0,0h138.5c25.5,0,46.1,20.6,46.1,46.1V197L188.2,197z"/>
					</g>
				</g>
			</g>
			<g>
				<g>
					<g>
						<defs>
							<circle id="SVGID_5_" cx="100" cy="100" r="97"/>
						</defs>
						<clipPath id="SVGID_6_">
							<use xlink:href="#SVGID_5_"  style="overflow:visible;"/>
						</clipPath>
						<path class="st2" d="M130.6,127.3H-6.7V72.7h137.3c15.2,0,27.3,12.1,27.3,27.3l0,0C157.9,115.2,145.5,127.3,130.6,127.3z"/>
					</g>
				</g>
			</g>
			<g>
				<g>
					<g>
						<defs>
							<circle id="SVGID_7_" cx="100" cy="100" r="97"/>
						</defs>
						<clipPath id="SVGID_8_">
							<use xlink:href="#SVGID_7_"  style="overflow:visible;"/>
						</clipPath>
						<path class="st3" d="M87.9,72.7H-1.8v54.6h89.7c2.1-8.2,3.3-17.3,3.3-27.3S90,80.9,87.9,72.7z"/>
					</g>
				</g>
			</g>
		</g>
		<path class="st4" d="M51.2,16c-16.4,9.7-30,24.2-38.5,41.5h71.5C77,40.9,65.4,26.9,51.2,16z"/>
		<path class="st5" d="M54.2,185.5c13.9-11.2,25.2-26.1,32.1-43H12.7C21.8,160.6,36.3,175.8,54.2,185.5z"/>
	</g>
</g>
</svg>
