<?xml version="1.0" encoding="utf-8"?>
<!-- Generator: Adobe Illustrator 22.1.0, SVG Export Plug-In . SVG Version: 6.00 Build 0)  -->
<svg version="1.1" id="图层_1" xmlns="http://www.w3.org/2000/svg" xmlns:xlink="http://www.w3.org/1999/xlink" x="0px" y="0px"
	 viewBox="0 0 200 200" style="enable-background:new 0 0 200 200;" xml:space="preserve">
<style type="text/css">
	.st0{fill:#268F48;}
</style>
<path class="st0" d="M0,22.2v155.6c38.3,7.4,76.6,14.8,114.9,22.2V0C76.5,7.4,38.2,14.8,0,22.2z M89.4,139.1H74.7
	c-1.2,0-2-0.2-2.7-1.5l-12.3-23.6c-0.9-1.6-1.2-3.3-1.7-4.4c-4.9,9.1-9.8,18.5-14.9,27.9c-0.4,0.6-1.1,1.3-1.7,1.3
	c-6.5,0.1-12.9,0.1-19.9,0.1c0.6-1,1-1.6,1.3-2.2c7.4-11.6,14.8-23.3,22.2-34.9c0.9-1.3,1-2.3,0.1-3.8C38.3,86.8,31.7,75.2,25,63.7
	c-0.5-0.9-1-1.8-1.5-2.7h8.2c3.8,0,7.7-0.1,11.5,0.1c0.7,0,2,0.6,2.2,1.2C49.3,70.5,53.2,78.7,57,87c0.5,1.1,0.9,2.3,1.3,3.8
	c0.2-0.4,0.5-0.6,0.6-0.8c4.6-9.2,9.1-18.3,13.8-27.5c0.2-0.5,0.9-1.2,1.3-1.2c6.1-0.1,12.3-0.1,18.9-0.1c-0.6,1.1-0.9,1.7-1.3,2.4
	L70.8,98c-0.9,1.3-0.9,2.3,0,3.8c7.2,11.7,14.4,23.4,21.5,35.1c0.4,0.7,0.7,1.3,1.3,2.4L89.4,139.1L89.4,139.1L89.4,139.1z
	 M123.2,176.7c0,0-0.1-14.9-0.1-22.6h22.8v-15.6h-22.7v-15.3h22.7v-15.5h-22.7V92.5h22.8V77h-22.8V61.9h23.1V46.1h-23.1V22.2H200
	v154.6L123.2,176.7L123.2,176.7L123.2,176.7z M153.9,61.5h29.3c1.3,0,1.6-0.7,1.6-1.8V46H154C153.9,51.2,153.9,56.2,153.9,61.5
	L153.9,61.5L153.9,61.5z M153.8,77v11.1c0,4.4,0,4.4,4.5,4.4h24.4c0.7,0,2-0.6,2-1c0.1-4.8,0.1-9.5,0.1-14.4
	C174.3,77,164.1,77,153.8,77z M184.5,107.7h-30.6V123h30.6V107.7z M153.9,153.8c0.4,0.1,0.6,0.2,0.7,0.2c9.5,0,19,0,28.6,0.1
	c1.3,0,1.6-0.6,1.6-1.7c0-3.9-0.1-7.8,0-11.7c0.1-1.8-0.6-2.2-2.3-2.2c-8.8,0.1-17.7,0-26.5,0c-0.6,0-1.2,0.1-1.9,0.1
	C153.9,143.8,153.9,148.7,153.9,153.8L153.9,153.8L153.9,153.8z"/>
</svg>
