<?xml version="1.0" encoding="utf-8"?>
<!-- Generator: Adobe Illustrator 22.1.0, SVG Export Plug-In . SVG Version: 6.00 Build 0)  -->
<svg version="1.1" id="图层_1" xmlns="http://www.w3.org/2000/svg" xmlns:xlink="http://www.w3.org/1999/xlink" x="0px" y="0px"
	 viewBox="0 0 200 200" style="enable-background:new 0 0 200 200;" xml:space="preserve">
<style type="text/css">
	.st0{fill:#EFEA3C;}
	.st1{fill:#080707;}
	.st2{fill:#040000;}
	.st3{fill:#0D0C0C;}
	.st4{fill:#050505;}
	.st5{fill:#F5C720;}
	.st6{fill:#FFFFFF;}
</style>
<path class="st0" d="M20.2,84.2c0,0-5.6,4.8-9,5.4c-3.4,0.6-2.8-1.8-2.8-1.8s2.5-1.7,2.8-4.2c0.3-2.5,1.7-12.8,3.1-14.1
	C14.4,69.5,3.8,74,2,81c-1.2,4.8,1.4,5.6,2.3,7.6c0.9,2-0.6,5.3,2.9,7c3.6,1.7,8.8,0,8.8,0"/>
<path class="st1" d="M11.1,97.9c-1.6,0-3.1-0.3-4.6-0.9c-3.3-1.5-3.5-4.3-3.5-6.1c0-0.7-0.1-1.3-0.2-1.6c-0.2-0.4-0.5-0.7-0.8-1.1
	c-1.1-1.4-2.7-3.4-1.6-7.6c2-7.7,12.9-12.4,13.4-12.6l3.5-1.9c0,0-1.5,2.5-2.2,4.7c-0.3,1-1.3,6.5-2.1,13c-0.3,1.6-1,3.1-2.2,4.3
	l0.2,0c2.1-0.4,6.2-3.3,8.2-5.1l2.1,2.5c-0.6,0.5-6.1,5.1-9.8,5.8C9.8,91.5,8.9,91,8.1,90c-0.9-0.9-1.1-1.8-0.9-2.6
	c0,0,0.2-0.6,0.3-0.8c0.2-0.3,0.5-0.7,0.9-0.9c0.5-0.3,1.2-1,1.4-2.4c0.5-4.4,2-8.8,2.6-11.3c-3,1.8-8.7,5.4-9.7,9.1
	c-0.7,2.6,0.9,3.8,1.9,5c0.4,0.5,0.9,1.1,1.2,1.8c0.4,0.9,0.5,1.9,0.5,2.9c0.1,1.8,0.2,2.6,1.6,3.3c2.5,1.2,6.3,0.3,7.6-0.1l1,3.1
	C14.7,97.7,12.9,97.9,11.1,97.9"/>
<path class="st0" d="M16.7,119.4c0,0-1.8,6.1-3.3,6.8c-1.5,0.6-8.1,6.2-8.2,9.6c-0.2,3.4,4.4,16.9,21.8,18.2l7.5-11.9L16.7,119.4
	L16.7,119.4z"/>
<path class="st2" d="M27.8,155.6l-1-0.1c-18.4-1.3-23.5-15.9-23.3-19.9c0.2-4.3,7.4-10.3,9.3-11c0.4-0.4,1.6-3.1,2.3-5.7l0.9-3.1
	l20.4,26L27.8,155.6z M17.3,122.8c-0.9,2.3-2,4.3-3.3,4.9c-1.4,0.6-7.1,5.8-7.2,8.2c-0.1,1.9,3.1,14.8,19.3,16.4l6.4-10.1
	L17.3,122.8z"/>
<path class="st0" d="M105.7,159.6c0,0,5.7,2.9,12.6,2.9c6.9,0,11-1,12-2.9c1-1.8-1.3-34.5-6.2-34.3"/>
<path class="st3" d="M118.4,164.1c-4.6-0.1-9.2-1.1-13.3-3l1.5-2.9c0.1,0,5.5,2.7,11.9,2.7c9.2,0,10.5-1.8,10.6-2
	c0.9-3.5-2-30.2-5-32l0.1-3.2c1.2,0,2.3,0.7,3.2,2.1c3.6,6,6,32,4.5,34.7C130.4,162.9,126.1,164.1,118.4,164.1"/>
<path class="st0" d="M58.1,146.7c6.2,2.4,24.2-1.2,24.2-1.2s-13,7-13.4,9.1c-0.4,2.1-0.9-0.5,4.4,9.8c5.3,10.3,11.2,10.8,14,10.8
	c2.9,0,2.9-1.9,5-4c2.1-2.1,18.2-18.2,20.6-19.4c2.4-1.2,12.7-30.4,12.7-30.4c6.1,6.2,12.9,12.1,21,9.6c8.1-2.4,9.4-15.1,9.4-15.1
	s9.2,1.2,11.8,1.2c2.6,0,26.5,0.9,29.4-31.5c2.8-32.4-6.5-37.6-10.3-37.6c-3.8,0.1-7.7,6.5-9.6,8.9c-1.9,2.3-6.2,2.1-6.2,2.1
	s-2.3-5.3-6-10.4c-3.7-5.1-6.6-3.4-14.3-8.8c-7.8-5.5-15.8-15.7-34.8-14.5c-19,1.2-31.4,18.5-31.4,18.5
	c-8.7,0.7-17.3,12.6-17.3,12.6s-22.4-0.9-38.9,16C11.8,89.3,12.8,106.5,14.9,117s13.6,28.9,13.6,31c0,0-5.7,11.8-4.7,16.3
	c1,4.5,23.8,10.2,26.2,8.4c2.5-1.8,3.7-8.4,3.9-10.2c0.2-1.8,4.9-7.3,4.9-10.2C58.8,150.5,58.6,148.6,58.1,146.7"/>
<path class="st2" d="M67.7,126.1c-10.1,0-15-9.7-15.2-10.1l-0.2-0.3l-0.2-1.1c0-2.9,0.5-3.1,0.8-4.1c0.2-0.5,0.4-1.2,0.4-4.5
	c0-2.5-1.3-3.9-3.2-5.8c-2.4-2.5-5.4-5.7-5.4-12.2c0-11.7,29.9-41.9,33.4-44.1c3.6-2.3,13.3-1.5,16.1-1.3c2.1,0.1,8.5,0.8,8.5,0.8
	c-6.7,0.1-20.8,1.1-22.8,3.3c-2.8,3-31.9,31.6-31.9,41.4c0,5.2,2.2,7.5,4.5,9.9c2,2.1,4.1,4.3,4.1,8c0,3.7-0.3,4.7-0.7,5.7
	c-0.2,0.5-0.9,1-0.4,3.2c0.4,1.7,5,8,12.1,8c3.9,0,8.4-2.4,13.2-5c5.3-2.9,10.8-5.9,16.7-6.1c0.7-1.4,4.1-7.1,4.1-13.2
	c0-3.1-0.6-6.1-1.7-9c-0.8-2.5-1-5.1-1-8.7c0-6.8,0.1-16,0.1-16.1c0,0,0.6,3.8,0.7,4.8c0,0.1,0.9,4.8,1.3,11.5
	c0.2,3,0.7,5.3,1.5,7.7c0.9,2.6,1.8,5.7,1.8,10c0,6.7-2.8,12.6-4.1,14.8c-0.5,0.9-1.5,1.5-2.6,1.5c-5.1,0.3-10.2,3-15.2,5.7
	C77.3,123.4,72.5,126.1,67.7,126.1"/>
<path class="st4" d="M168.4,118.1c-14.7,0-28.9-7.2-29.8-7.5l0.5-2.9c0.3,0.1,23.6,11.1,39.4,5.7c12.1-4.2,18.9-18.6,18.2-38.6
	c-0.6-16.1-3.6-21.8-6.1-23.7c-1.1-0.9-2.6-1.2-4-0.9c-2,0.4-3,1.9-4.2,3.8c-0.8,1.1-1.6,2.5-2.8,3.6c-3.4,3.1-8.1,3.1-8.3,3.1
	l-1.4,0l-0.2-1.4c0,0-0.8-4.8-5.5-10c-2.2-2.6-5.3-4.3-8.6-5c-1.2-0.3-2.3-0.6-3.3-1.1c-0.8-0.4-1.7-1.3-2.9-2.7
	c-4.9-5.2-15-16-34.2-13C91.7,31.1,87,44.1,87,44.2l-3.1-1.1c0.2-0.6,5.4-15,30.7-19c20.9-3.3,32.2,8.8,37.1,14
	c0.8,0.9,1.8,1.9,2.1,2c0.8,0.4,1.7,0.7,2.6,0.8c2.6,0.7,6.3,1.5,10.3,5.9c3.8,4.2,5.4,8.2,6,10.2c1.7-0.2,3.4-1,4.7-2.1
	c0.9-0.8,1.6-1.9,2.4-3c1.4-2.1,2.9-4.4,6.3-5.2c2.3-0.5,4.8,0,6.7,1.5c4.4,3.5,6.9,12.1,7.4,26.2c0.8,21.5-6.9,37.2-20.4,41.8
	C175.9,117.6,172.1,118.2,168.4,118.1"/>
<path class="st2" d="M143.6,132.6c-7.1,0-12.9-4.9-17.9-9.9c-3-3-5.1-3.3-7.1-4.5c-2.8-1.9-5.4-4.1-7.7-6.5l2.5,1.4
	c3,1.8,3.4,2,5.2,2.7c2.2,0.8,5,1.4,8.5,4.9c5.6,5.7,12.7,10.3,20.2,8c7-2.1,8.2-13.6,8.2-13.7l3.2,0.3c0,0.6-1.5,13.8-10.6,16.5
	C146.7,132.4,145.1,132.6,143.6,132.6"/>
<path class="st4" d="M49.1,174.2c-4.9,0-13.4-2.5-16.7-3.7c-7.4-2.7-8.7-4.9-9-6.2c-1-4.5,3.4-14.4,4.6-16.9c-1-2.2-2.1-4.3-3.2-6.5
	c-3.6-6.8-9-17.1-10.3-24c-3.5-17.9,1.1-33,13.9-46.1c16.8-17.2,39.2-16.6,40.1-16.5l-0.1,3.3C68,57.4,46.3,56.9,30.6,73
	c-12,12.3-16.2,26.4-13,43.2c1.3,6.5,6.5,16.5,10,23.2c2.9,5.6,3.7,7.2,3.7,8.2l-0.2,0.7c-2.1,4.4-5.2,12.4-4.6,15.2
	c0,0,0.3,0.9,3.3,2.4c7,3.4,18.7,5.6,20.5,5c1.5-1.1,2.8-6.4,3.1-9c0.1-1.1,0.9-2.3,2.2-4.4c1.1-1.7,2.7-4.3,2.7-5.5
	c0-2.2-1.7-12.1-2.4-15.8l1.3,2.3c1.2,2.1,4.4,10.6,4.4,13.5c0,2.1-1.6,4.7-3.2,7.3c-0.7,1.1-1.6,2.6-1.7,3.1
	c0,0.1-1.1,8.7-4.5,11.3C51.5,174,50.5,174.2,49.1,174.2"/>
<path class="st4" d="M65.8,148.7c-2.8,0-5.4-0.3-7.1-0.9l1.2-3.1c4.7,1.8,18.4-0.3,23.2-1.3l-0.1,2.7
	C81.6,146.3,73.2,148.7,65.8,148.7"/>
<path class="st2" d="M56,111.7l-1.3-2.8c0.3-0.5,2.1-9.8,13.7-18.2c0,0-5.9,6.8-6.8,8.4C58.7,104.2,58,108.1,56,111.7"/>
<path class="st4" d="M139.1,107.7c0,0-6.3,17.7,2.8,19.2c8.1,1.3,11.2-12.5,11.2-12.5L139.1,107.7z"/>
<path class="st2" d="M132.1,76c0,0-7-5.9-1.3-10.6c4.7-3.9,10.5,3.3,9.9,4.5C140,71,132.1,76,132.1,76"/>
<path class="st2" d="M123.4,73.6c0,0,4.6-6.3,7.5-8.6c2.9-2.3,9.4-2.8,9.4-2.8s-4.4,0.7-8.6,4.3L123.4,73.6 M118.5,67.3
	c0,0-1.3-8.6,0-11.9c1.3-3.3,9.1-5.6,9.1-5.6s-6.1,3.9-7,6.6C119.2,60.5,118.5,67.3,118.5,67.3 M161.2,64.8c0,0-3.7-6.4,2.3-7.6
	c5.5-1.2,5.5,7.3,5.5,7.3L161.2,64.8z"/>
<path class="st2" d="M156.8,59.3c0,0,4.1-2.4,7.7-2.4c3.6,0,5.6,2.8,5.6,2.8s-3.1-1.9-5.6-1.9C162,57.8,156.8,59.3,156.8,59.3
	 M74.6,73.6c0,0,4.3-18.6,9.8-21.1c7.2-3.2,15.6-1.7,15.6-1.7s-9.1,0.5-14.4,3.9C80.2,58.2,74.6,73.6,74.6,73.6"/>
<path class="st2" d="M84.1,64.7c0,0-0.8-7.3,0.6-9.5c1.4-2.2,6.9-2.9,6.9-2.9s-3.5,1.2-5.2,4.8C84.7,60.9,84.1,64.7,84.1,64.7
	 M133.3,112.2c0,0,0-5.3,1.6-7.1c1.7-1.8,7-2,7-2s-4,1.2-5.8,3.3C134.6,108.3,133.3,112.2,133.3,112.2 M161.8,82
	c0,0,0.1-1.5,0.5-3.2c0.3-1.7,0.3-3.4,1.2-6.5c0.9-3.2,3.8-4.5,5.1-4.5c1.4,0,2,0.8,2,0.8s-3-0.2-5,3.5
	C164.2,74.7,161.8,82,161.8,82"/>
<path class="st2" d="M155.9,77.4c0,0,0.6-1,1-2.6c0.8-2.3,1.8-5.7,4.2-7.1c4.1-2.3,10.1-0.2,10.1-0.2l0.3,1.6
	c0.1-0.1-6.2-1.9-9.2,0.1C159.6,71.1,155.9,77.4,155.9,77.4"/>
<path class="st1" d="M169.8,83.9l-2.4,4.2c0,0,3.1-10.8,3.6-16c0.3-2.9-0.6-4.5-1.5-6.1c-0.6-1.1-1.2-2.3-1.3-3.7
	c-0.2-3.3,2.6-4.8,4.1-5.1l0.7,3.2c-0.4,0.1-1.6,0.4-1.5,1.7c0.2,0.8,0.5,1.6,0.9,2.3c0.9,1.7,1.9,4,1.6,7.9
	C173.4,78,169.8,83.8,169.8,83.9"/>
<path class="st4" d="M87.1,176.3c-5.3,0-9.3-3-13-9.8c-0.9-1.7-1.9-3.4-2.9-5.1c-2.4-3.9-3.6-6-1.9-9c1.7-2.9,9.9-7.1,12.8-8.6
	l4.5-8.2c0,0-0.6,2.9-0.7,3.9c-0.2,1.4-0.7,4.3-1.5,5.5c-0.6,1-0.9,1.2-1.2,1.4c-3.8,3.1-10.2,5.9-11.2,7.6
	c-0.7,1.2-0.5,1.7,1.9,5.7c0.8,1.4,1.8,3.1,3,5.2c4.4,8,8.2,8.3,11.4,8c1.6-0.2,1.7-0.3,2.3-1.3c0.7-1.1,1.8-2.8,4.8-5.1
	c4.2-3.1,8.6-7.6,12.5-11.6c1.5-1.6,3-3,4.3-4.3c3.2-3.1,8.8-20.1,11.7-30.8l3.2,0.9c-0.8,2.8-7.7,27.5-12.6,32.3
	c-1.3,1.3-2.7,2.7-4.2,4.2c-3.9,4.1-8.5,8.6-12.9,11.9c-2.5,1.9-3.4,3.2-4,4.2c-1,1.6-1.8,2.6-4.8,2.9
	C88.1,176.3,87.6,176.3,87.1,176.3"/>
<path class="st2" d="M172.2,62.7c0,0,6.2-0.5,9.2-3.7c3.4-3.5,5.5-7.8,5.5-7.8s-0.9,6.7-4.9,9.6C176.7,64.8,172.2,62.7,172.2,62.7"
	/>
<path class="st5" d="M148.5,124.1c0,0-3.8,1.9-6.6,1.1c-1-0.3-0.8,0.3-0.8,0.3s0.8,0.7,2.8,0.6c1.4,0,2.7-0.4,3.9-1.1L148.5,124.1z"
	/>
<path class="st6" d="M135.3,72.9c0,1.5-1.1,2.7-2.6,2.7c0,0,0,0,0,0c-1.5,0-2.6-1.2-2.6-2.7c0-1.5,1.2-2.7,2.6-2.7
	C134.2,70.3,135.3,71.5,135.3,72.9"/>
<path class="st2" d="M128.1,82.8c0,0,2.4-7.9,7.2-11.2c4.9-3.3,10.4-3.3,10.4-3.3s-6.5,2.7-9.7,5.2
	C132.3,76.7,128.1,82.8,128.1,82.8"/>
<path class="st6" d="M164.8,63.1c0,1.1-1,2-2.1,2s-2.1-0.9-2.1-2c0-1.1,0.9-2,2.1-2S164.8,62,164.8,63.1"/>
<path class="st2" d="M158.2,65.7c0,0,3.2-1.6,7-1.8c3.8-0.2,5.5,0.9,5.5,0.9s-4-0.1-5.5,0C163.4,64.9,158.2,65.7,158.2,65.7"/>
</svg>
