<?xml version="1.0" encoding="utf-8"?>
<!-- Generator: Adobe Illustrator 22.1.0, SVG Export Plug-In . SVG Version: 6.00 Build 0)  -->
<svg version="1.1" id="图层_1" xmlns="http://www.w3.org/2000/svg" xmlns:xlink="http://www.w3.org/1999/xlink" x="0px" y="0px"
	 viewBox="0 0 200 200" style="enable-background:new 0 0 200 200;" xml:space="preserve">
<style type="text/css">
	.st0{fill:#E32515;}
</style>
<path class="st0" d="M36.3,93.4H40v7.2h-7.3v-7.2H36.3z M117.7,89.9h10.9v-3.3h-10.9c-0.9,0-1.3-0.4-1.3-1.2v-5.2
	c0-0.8,0.4-1.2,1.3-1.2h10.9v-3.3h-10.9c-1.3,0-2.4,0.4-3.3,1.3c-0.9,0.9-1.3,1.9-1.3,3.2v5.2c0,1.3,0.4,2.3,1.3,3.2
	C115.4,89.5,116.5,89.9,117.7,89.9z M47.8,85.3h-5.5v4.6h-3.3V75.8h13.7c1.2,0,2.2,0.5,3,1.5c0.7,0.9,1,2,1,3.3s-0.3,2.3-1,3.2
	c-0.8,1-1.7,1.5-3,1.5L47.8,85.3z M42.2,82h10.4c0.5,0,0.7-0.5,0.7-1.5S53.1,79,52.6,79H42.2L42.2,82z M36.3,105.2H9.2V93.4H2v30.8
	h7.2v-11.8h23.5v11.9H40v-19.1H36.3z M5.3,89.9H2v-9.8c0-1.2,0.4-2.2,1.1-3.1s1.7-1.3,2.9-1.3h9.3c1.2,0,2.2,0.4,2.9,1.3
	c0.7,0.9,1.1,1.9,1.1,3.1v9.8H16v-4.5H5.3V89.9z M5.3,82.1H16v-2c0-0.7-0.2-1.1-0.7-1.1H6c-0.5,0-0.7,0.4-0.7,1.1V82.1z
	 M153.4,105.2h-19.3c-1,0-1.5-0.8-1.5-2.3c0-1.6,0.5-2.3,1.5-2.3h26.6v-7.2h-26.6c-2.6,0-4.7,0.9-6.3,2.8c-1.6,1.9-2.5,4.1-2.5,6.7
	c0,2.6,0.8,4.8,2.4,6.6c1.7,1.9,3.8,2.9,6.3,2.9h19.3c1,0,1.5,0.8,1.5,2.3s-0.5,2.3-1.5,2.3h-26.6v7.2h26.6c2.6,0,4.7-1,6.4-2.9
	c1.6-1.8,2.3-4.1,2.3-6.6c0-2.6-0.8-4.8-2.3-6.6C158.1,106.2,156,105.2,153.4,105.2L153.4,105.2z M165.1,124.3h32.8v-7.2h-25.6v-4.7
	h24v-7.2h-24v-4.6H198v-7.2h-32.9L165.1,124.3L165.1,124.3z M182.9,75.7v14.1h15v-3.3h-11.7v-2.1h11v-3.3h-11V79H198v-3.3
	L182.9,75.7L182.9,75.7z M160,81.2h-8.5v-5.4h-3.3v14.1h3.3v-5.4h8.5v5.4h3.3V75.8H160V81.2z M81.5,115.7c0,2.3-0.7,4.3-2.2,5.9
	c-1.6,1.8-3.8,2.6-6.5,2.6H42.9v-19h29.3c1,0,1.6-0.8,1.6-2.3s-0.5-2.3-1.6-2.3H42.9v-7.2h29.4c2.7,0,4.9,0.9,6.5,2.6
	c1.4,1.6,2.2,3.6,2.2,5.9c0,2.9-1.1,5.1-3.2,6.7C80.3,110.2,81.5,112.6,81.5,115.7z M74.4,114.7c0-1.6-0.5-2.3-1.6-2.3H50.2v4.7
	h22.7C73.9,117.1,74.4,116.3,74.4,114.7L74.4,114.7z M84.9,85.4h-5.4v4.5h-3.3v-9.8c0-1.2,0.4-2.2,1.1-3.1c0.7-0.9,1.7-1.3,2.9-1.3
	h9.3c1.2,0,2.2,0.4,2.9,1.3c0.7,0.9,1.1,1.9,1.1,3.1v9.8h-3.3v-4.5H84.9z M84.9,82.1h5.4v-2c0-0.7-0.2-1.1-0.7-1.1h-9.3
	c-0.5,0-0.7,0.4-0.7,1.1v2H84.9z M119.8,96.2c1.6,1.9,2.4,4.1,2.4,6.7v21.3H115v-9.8H91.6v9.8h-7.2v-21.3c0-2.6,0.8-4.8,2.4-6.7
	c1.6-1.9,3.7-2.8,6.3-2.8h20.4C116.1,93.4,118.2,94.3,119.8,96.2z M115,102.9c0-1.6-0.5-2.3-1.6-2.3H93.1c-1,0-1.5,0.8-1.5,2.3v4.3
	H115L115,102.9L115,102.9z"/>
</svg>
