<?xml version="1.0" encoding="utf-8"?>
<!-- Generator: Adobe Illustrator 22.1.0, SVG Export Plug-In . SVG Version: 6.00 Build 0)  -->
<svg version="1.1" id="图层_1" xmlns="http://www.w3.org/2000/svg" xmlns:xlink="http://www.w3.org/1999/xlink" x="0px" y="0px"
	 viewBox="0 0 200 200" style="enable-background:new 0 0 200 200;" xml:space="preserve">
<style type="text/css">
	.st0{fill:#2AA515;}
</style>
<path class="st0" d="M126.6,39.6c-0.8-1.3-1.4-2.7-2.3-3.9C113.9,22.6,104.4,15.6,98.8,2c-3.2,12-11.8,13.7-19.6,24
	c-12.6,16.5-27.7,49.5-23.7,80.5c2.4,18.8,9.3,33.4,18.6,46c5.6,7.6,11,12.8,16.7,17.4c7.2,5.8,7.7,8.2,7.9,26.6l5,1.5h0.5
	c-0.1-7-1.8-15.7,0.5-22c2.6-7.1,13-11.7,17.6-17.5c6.3-7.9,12.5-17.3,16.1-27.5C151.3,94.8,141,64.8,126.6,39.6L126.6,39.6z"/>
</svg>
