<?xml version="1.0" encoding="utf-8"?>
<!-- Generator: Adobe Illustrator 22.1.0, SVG Export Plug-In . SVG Version: 6.00 Build 0)  -->
<svg version="1.1" id="图层_1" xmlns="http://www.w3.org/2000/svg" xmlns:xlink="http://www.w3.org/1999/xlink" x="0px" y="0px"
	 viewBox="0 0 200 200" style="enable-background:new 0 0 200 200;" xml:space="preserve">
<style type="text/css">
	.st0{fill:#006694;}
	.st1{fill:#E69500;}
</style>
<path class="st0" d="M0,142.5h6.6v-26.2l10.3,22.8c1.2,2.7,2.9,3.8,6.1,3.8s4.8-1,6-3.8l10.3-22.8v26.2H46v-26.2
	c0-2.5-1-3.8-3.1-4.4c-5-1.5-8.4-0.2-9.9,3.2l-10.1,22.5L13,115.2c-1.5-3.4-4.9-4.7-10-3.2C1,112.6,0,113.8,0,116.4V142.5L0,142.5z
	 M51.4,121.2h6.7v14.4c-0.1,0.8,0.3,2.6,3.9,2.7c1.9,0.1,14.3,0,14.4,0v-17.2H83v23.5c0,5.8-7.2,7.1-10.5,7.1H51.6v-4.4h21
	c4.3-0.4,3.8-2.6,3.8-3.3v-1.7H62.2c-6.5-0.1-10.8-2.9-10.8-6.2C51.4,135.8,51.6,121.3,51.4,121.2z M194.1,104.6
	c-4.1-0.1-7.2,0.3-9.8,1.4c-0.8,0.3-2,0.3-2.1,1.3c0.4,0.4,0.4,1.1,0.8,1.6c0.6,1,1.7,2.4,2.6,3.1c1.1,0.8,2.1,1.6,3.2,2.3
	c2,1.2,4.2,1.9,6.2,3.1c1.1,0.7,2.2,1.6,3.4,2.4c0.6,0.4,0.9,1.1,1.6,1.3v-0.2c-0.4-0.4-0.4-1.1-0.8-1.6c-0.5-0.5-1-1-1.5-1.5
	c-1.5-2-3.3-3.7-5.3-5.1c-1.6-1.1-5.2-2.6-5.8-4.5l-0.1-0.1c1.1-0.1,2.4-0.5,3.5-0.8c1.7-0.4,3.3-0.4,5.1-0.8
	c0.8-0.2,1.6-0.4,2.4-0.7v-0.4c-0.9-0.9-1.6-2.1-2.5-3c-2.6-2.2-5.4-4.4-8.4-6.2c-1.6-1-3.6-1.7-5.3-2.5c-0.6-0.3-1.6-0.4-2-1
	c-0.9-1.1-1.4-2.6-2.1-3.9c-1.5-2.8-2.9-5.9-4.2-8.8c-0.9-2-1.5-4-2.6-5.8c-5.2-8.6-10.9-13.9-19.6-19c-1.9-1.1-4.1-1.5-6.5-2.1
	c-1.3-0.1-2.5-0.2-3.8-0.2c-0.8-0.4-1.6-1.3-2.3-1.8c-2.9-1.8-10.4-5.8-12.5-0.6c-1.4,3.3,2,6.5,3.2,8.2c0.9,1.2,2,2.5,2.6,3.8
	c0.4,0.9,0.4,1.8,0.8,2.7c0.8,2.2,1.6,4.7,2.6,6.8c0.6,1.1,1.2,2.2,1.9,3.1c0.4,0.6,1.1,0.8,1.3,1.7c-0.7,1-0.8,2.5-1.2,3.8
	c-1.8,5.7-1.1,12.9,1.5,17.1c0.8,1.3,2.7,4.1,5.3,3c2.3-0.9,1.8-3.8,2.4-6.3c0.2-0.6,0.1-1,0.4-1.4v0.1c0.7,1.4,1.4,2.8,2.1,4.2
	c1.6,2.5,4.3,5.1,6.6,6.8c1.2,0.9,2.2,2.5,3.7,3V107h-0.1c-0.3-0.4-0.8-0.7-1.2-1c-0.9-0.9-1.9-2-2.6-3c-2.1-2.9-4-6-5.7-9.2
	c-0.8-1.6-1.5-3.3-2.2-4.9c-0.3-0.6-0.3-1.5-0.8-1.8c-0.8,1.1-1.9,2.1-2.4,3.5c-1,2.2-1.1,4.9-1.4,7.7c-0.2,0.1-0.1,0-0.2,0.1
	c-1.6-0.4-2.2-2.1-2.8-3.5c-1.5-3.6-1.8-9.4-0.4-13.6c0.4-1.1,1.9-4.4,1.3-5.4c-0.3-1-1.3-1.5-1.9-2.3c-0.7-1-1.4-2.2-1.8-3.2
	c-1.2-2.9-1.8-6-3.1-8.8c-0.6-1.3-1.7-2.7-2.5-3.9c-1-1.4-2-2.3-2.8-4c-0.3-0.6-0.6-1.5-0.2-2.1c0.1-0.4,0.3-0.6,0.7-0.7
	c0.7-0.6,2.5,0.2,3.2,0.4c1.9,0.8,3.5,1.5,5,2.5c0.7,0.5,1.5,1.5,2.4,1.7h1.1c1.6,0.4,3.5,0.1,5,0.6c2.7,0.9,5.1,2.1,7.3,3.5
	c6.6,4.2,12.1,10.2,15.8,17.4c0.6,1.2,0.9,2.2,1.4,3.5c1.1,2.5,2.4,5,3.5,7.5c1.1,2.4,2.1,4.8,3.6,6.8c0.8,1.1,3.8,1.6,5.2,2.2
	c1,0.4,2.6,0.9,3.5,1.4c1.7,1.1,3.5,2.3,5.1,3.5C191.4,102.3,194,103.6,194.1,104.6L194.1,104.6z"/>
<path class="st0" d="M142.3,60.5c-0.9,0-1.5,0.1-2.1,0.3v0.1h0.1c0.4,0.8,1.1,1.4,1.6,2.1c0.4,0.8,0.8,1.6,1.2,2.4l0.1-0.1
	c0.7-0.5,1.1-1.3,1.1-2.5c-0.3-0.4-0.4-0.7-0.6-1.1C143.4,61.1,142.7,60.9,142.3,60.5z"/>
<path class="st1" d="M88.1,142.5h19.1c2.2,0,4.4-0.4,6.1-1.3c2.9-1.3,4.3-3.1,4.3-5.4v-4.9c0-1.9-1.6-3.7-4.7-4.9
	c-1.6-0.6-3.7-1-5.6-1h-8c-2.7,0-4-0.8-4.3-2.6c-0.1-0.2-0.1-0.4-0.1-0.6v-3c0-0.2,0-0.4,0.1-0.6c0.4-1.4,1.1-1.7,3.4-2h19.6V112
	H99.2c-2.7,0-4.1,0.2-5.4,0.6c-3.9,1.2-5.6,3.1-5.6,6.5v3.9c0,3,3.4,5.5,9,6.2c0.6,0.1,1.3,0.1,1.9,0.1h6.9c0.3,0,0.5,0,0.7,0.1
	c2.1,0.2,3,0.6,3.6,1.3c0.4,0.4,0.5,0.8,0.5,1.2v3.9c0,0.4-0.3,1.1-0.9,1.6c-0.6,0.5-1.6,0.9-2.9,0.9c-0.3,0-0.4,0.1-0.7,0.1H88.1
	V142.5z M158.9,134.8c0,4.5,3.4,7.1,10.2,7.6c0.7,0.1,1.3,0.1,1.9,0.1h17.3v-4.4h-17.4c-3.9,0-5.3-1-5.3-3.3v-22.9h-6.7V134.8
	L158.9,134.8z M121.8,135.1v-15.7c0-4,2.9-6.4,8.4-7.2c0.6-0.1,1.2-0.1,1.8-0.1h12.6c0.7,0,1.2,0.1,1.9,0.1c5.5,0.8,8.3,3.2,8.3,7.2
	v15.7c0,3.2-1.2,5-3.9,6.2l6.5,5.9h-7.7l-5.3-4.8l-5.3,0.3h-7.1c-1.2,0-2.5-0.2-3.9-0.5C123.8,140.9,121.8,138.7,121.8,135.1
	L121.8,135.1z M128.9,134.7c0,0.2,0.1,0.4,0.2,0.7c0.4,1.8,2.1,2.9,4.7,2.9h6l-5.5-5h7.7l4.8,4.4c0.9-0.5,1.5-1.2,1.7-2.1
	c0.1-0.2,0.1-0.4,0.1-0.7v-15.1c0-0.2,0-0.4-0.1-0.6c-0.4-1.7-2.1-2.7-4.7-2.7h-10c-2.9,0-4.9,1.3-4.9,3.3V134.7L128.9,134.7z
	 M191.3,142.6h1v-3.7h1.3v-0.8H190v0.8h1.3V142.6z M198.7,142.6h0.9v-4.5h-1.4l-1.1,3l-1.2-3h-1.3v4.5h0.9v-3.4h0.1l1.3,3.4h0.7
	l1.3-3.4L198.7,142.6L198.7,142.6z"/>
</svg>
