<?xml version="1.0" encoding="utf-8"?>
<!-- Generator: Adobe Illustrator 22.1.0, SVG Export Plug-In . SVG Version: 6.00 Build 0)  -->
<svg version="1.1" id="图层_1" xmlns="http://www.w3.org/2000/svg" xmlns:xlink="http://www.w3.org/1999/xlink" x="0px" y="0px"
	 viewBox="0 0 200 200" style="enable-background:new 0 0 200 200;" xml:space="preserve">
<style type="text/css">
	.st0{fill:#DF0024;}
	.st1{fill:#FFFFFF;}
</style>
<g>
	<path class="st0" d="M28.1,91.9h-16c-6.6,0-12,5.4-12,12c0,6.6,5.4,12,12,12h16c6.6,0,12-5.4,12-12C40.1,97.3,34.7,91.9,28.1,91.9
		L28.1,91.9z M27.1,111.8h-14c-4.4,0-8-3.6-8-8c0-4.4,3.6-8,8-8h14c4.4,0,8,3.6,8,8C35.1,108.2,31.5,111.8,27.1,111.8z M70.8,99.6
		c0-4.3-3.6-7.9-8-7.9H41.9v23.9h4V95.8h17c2.2,0,4,1.8,4,4s-1.8,4.1-4,4.1h-14l14,12h6l-9.3-8h3.3C67.2,107.8,70.8,104.1,70.8,99.6
		L70.8,99.6z M88.9,91.8c-1.3,0-2.4,0.7-3.1,1.8l-14,22.4h4.7l10.9-17.4l1.5-2.4l1.5,2.4l5.4,8.6H83.1l2,4h13.2l3,4.8h4.7l-14-22.4
		C91.4,92.6,90.3,91.8,88.9,91.8L88.9,91.8z M174.8,95.9h13.6l3-4h-17.6c-6.6,0-12,5.4-12,12c0,6.6,5.4,12,12,12h15.6l2-4h-16.6
		c-3.7,0-6.8-2.6-7.7-6.1h20.2l2-4h-22.2C168.1,98.3,171.2,95.8,174.8,95.9L174.8,95.9z M140.1,91.9h-4v21.9c0,1.1,0.9,2,2,2h22.4
		l2-4h-22.4L140.1,91.9L140.1,91.9z M117.2,95.9h13.6l3-4h-17.6c-6.6,0-12,5.4-12,12c0,6.6,5.4,12,12,12h15.6l2-4h-16.6
		c-4.4,0-8-3.6-8-8C109.2,99.4,112.8,95.9,117.2,95.9L117.2,95.9z M196.7,91.2c-1.5,0-2.9,1.2-2.9,2.9c0,1.7,1.4,2.9,2.9,2.9
		c1.5,0,2.9-1.2,2.9-2.9C199.6,92.4,198.3,91.2,196.7,91.2L196.7,91.2z M196.7,96.4c-1.3,0-2.3-1-2.3-2.3c0-1.3,1-2.3,2.3-2.3
		c1.2,0,2.3,1,2.3,2.3C199,95.4,198,96.4,196.7,96.4L196.7,96.4z"/>
	<path class="st1" d="M196.7,91.8c-1.3,0-2.3,1-2.3,2.3s1,2.3,2.3,2.3c1.2,0,2.3-1,2.3-2.3C199,92.8,198,91.8,196.7,91.8L196.7,91.8
		z M197.5,95.8l-0.9-1.4h-0.5v1.4h-0.6v-3.3h1.3c0.8,0,1.2,0.3,1.2,0.9h0c0,0.6-0.4,0.8-0.9,0.9l1,1.4H197.5z"/>
	<path class="st0" d="M198.1,93.4c0-0.7-0.4-0.9-1.2-0.9h-1.3v3.3h0.6v-1.4h0.5l0.9,1.4h0.7l-1-1.4C197.7,94.3,198.1,94,198.1,93.4
		L198.1,93.4z M196.1,93.9v-0.9h0.6c0.3,0,0.7,0.1,0.7,0.4c0,0.5-0.4,0.5-0.8,0.5H196.1L196.1,93.9z"/>
	<path class="st1" d="M197.5,93.4c0-0.4-0.4-0.4-0.7-0.4h-0.6v0.9h0.6C197.1,93.9,197.5,93.8,197.5,93.4L197.5,93.4z"/>
</g>
</svg>
