<?xml version="1.0" encoding="utf-8"?>
<!-- Generator: Adobe Illustrator 22.1.0, SVG Export Plug-In . SVG Version: 6.00 Build 0)  -->
<svg version="1.1" id="图层_1" xmlns="http://www.w3.org/2000/svg" xmlns:xlink="http://www.w3.org/1999/xlink" x="0px" y="0px"
	 viewBox="0 0 200 200" style="enable-background:new 0 0 200 200;" xml:space="preserve">
<style type="text/css">
	.st0{fill:#E32515;}
</style>
<path class="st0" d="M100.9,34.7C92.2,33.4,83.2,0,83.2,0c-6.4,1.9-57.9,17-37.9,30.4c33.4,22.2,31.9,67.2-17.6,104.7
	c-69.3,52.6,68.6,67.8,70.6,64.5c34.2-57.6,18.1-100,18.1-100s40.1-13,74.8-18.3C195.7,80.6,171.4,44.6,100.9,34.7L100.9,34.7
	L100.9,34.7z M155.4,55.1c0,0-24.7,6.9-36.2,12.8c0,0,6.4-19.9,6.2-23.4C125.4,44.6,150.1,51.5,155.4,55.1L155.4,55.1L155.4,55.1z
	 M113.7,68c0,0-11.3-6.6-15.4-7.8l24.1-15.6C122.4,44.6,122.4,53.1,113.7,68L113.7,68L113.7,68z M93.3,106.7l20.4,12.1
	c-3,3-22.5,12.1-22.5,12.1C94.1,124.1,93.3,106.7,93.3,106.7L93.3,106.7L93.3,106.7z M96.5,105.8l17.6-6c1.6,6.2,1.1,16.3,1.1,16.3
	C110.3,114,96.5,105.8,96.5,105.8L96.5,105.8L96.5,105.8z M54.4,145.9c0,0,15.8-26.8,15.2-29.8c0,0,1.8,7.3,13.4,17.9
	C83,133.9,74.5,139.7,54.4,145.9L54.4,145.9L54.4,145.9z M81.9,139.2c0,0-3.1,14.6-10.7,26c0,0-11.1-4.5-19.1-15
	C52.1,150.2,79,141.3,81.9,139.2L81.9,139.2L81.9,139.2z M87.1,62.9c0,0-9,8.7-14.4,13.7c0,0-0.2-19-1.5-19.7
	C71.2,57,82.2,59.7,87.1,62.9C87.1,62.9,87.1,62.9,87.1,62.9z M72.7,51.5l15.4-13.3c0,0,3.9,4.4,3,19.5C91,57.7,77,52.4,72.7,51.5
	L72.7,51.5L72.7,51.5z M89.2,66.8c0,0-2.5,12.6-8.5,20.2c0,0-5.6-4.8-8.1-6.4C72.7,80.6,87.6,68.2,89.2,66.8L89.2,66.8L89.2,66.8z
	 M79.1,95.5c0,0,4.3,2.7,3.9,9.6c0,0-28.9,13.1-33.2,16C49.8,121.1,77.6,98.2,79.1,95.5C79.1,95.5,79.1,95.5,79.1,95.5z M72.7,114.7
	l15.6-6.4c0,0,2.3,10.8-2.7,22.7C85.5,131,77.6,126.4,72.7,114.7L72.7,114.7L72.7,114.7z M87.1,103.9c0,0-1.8-11.7-4.1-13.5
	c0,0,10.1-4.8,25-13.5C108,76.9,89.1,101,87.1,103.9L87.1,103.9z M88.3,83.1c0,0,5.5-15.1,5.3-18.6l14.4,7.8L88.3,83.1z M117.6,43.7
	C116,44.4,93.6,57,93.6,57c3.4-10.5-2.4-18.8-2.4-18.8L117.6,43.7L117.6,43.7z M93.6,33.8l-16-2.5L89.4,24L93.6,33.8z M58.3,13.7
	c1.4-1.1,24.1-11.2,24.1-11.2s6.4,16,4.4,16C84.6,18.5,56.9,14.8,58.3,13.7L58.3,13.7L58.3,13.7z M87.1,21.5l-14.4,8.9H69
	c0,0-13.3-13.5-13.7-14.9C55.3,15.5,83.6,21.9,87.1,21.5L87.1,21.5L87.1,21.5z M52.5,17.1l10.1,11.8c0,0-15.8-3.6-17-4.9
	S52.5,17.1,52.5,17.1L52.5,17.1z M50.9,30.4L61,33.8L64.7,46C64.7,46,55.1,33.4,50.9,30.4L50.9,30.4L50.9,30.4z M63.5,33.8l22,3.2
	L69,49.4C69,46.7,63.5,33.8,63.5,33.8L63.5,33.8L63.5,33.8z M70,87c0,0,3.9,1.1,5.7,3.4c0,0-6.6,5.9-12.1,9.4
	C63.5,99.8,69.7,89,70,87C70,87,70,87,70,87z M56.2,109.1c0,0,8.4-7.8,18.3-12L47,121.1L56.2,109.1L56.2,109.1z M62.2,118.8
	c0,0-6.6,18.8-13.3,25.4c0,0-3-3.7-3.4-17.2C45.4,127.1,59.4,119.7,62.2,118.8L62.2,118.8L62.2,118.8z M39.7,129.6
	c0,0-0.5,7.3,4.6,19c0,0-25.7,8-29.8,8C14.5,156.6,17.3,140.4,39.7,129.6L39.7,129.6z M14.5,158.7c7.6,0,28.6-6,28.6-6
	c-1.1,4.1-17.2,25-17.2,25C13.4,169,14.5,158.7,14.5,158.7L14.5,158.7L14.5,158.7z M27.8,178.8L47,154.1c0,0,8.5,8,17.6,13.1
	l-35.9,13.1L27.8,178.8L27.8,178.8z M31,180.7l36.4-9.9l-13.1,19.7C54.4,190.5,39.5,188.5,31,180.7L31,180.7L31,180.7z M72.7,170.8
	c0,0,15.2,6.6,30.8,6.9c0,0-36.7,14.1-47.2,14.6C56.2,192.3,72.8,172.2,72.7,170.8L72.7,170.8L72.7,170.8z M96.5,198.8
	c0,0-25.5-2.1-33-6.5c0,0,22.4-4.3,40.8-12.1C104.4,180.2,98.8,196,96.5,198.8L96.5,198.8L96.5,198.8z M104.4,176.6
	c0,0-25.7-4.6-29.9-9.4c0,0,35.7-14.4,37-17C111.5,150.2,108.7,171.2,104.4,176.6L104.4,176.6L104.4,176.6z M76.8,162.4l11.5-24.3
	c0,0,17,8.9,23.3,10.3C111.5,148.4,82.6,162.6,76.8,162.4L76.8,162.4L76.8,162.4z M112.6,145.9c-10.3-2.5-21.4-11-21.4-11
	c5-1.4,24.2-12.8,24.2-12.8C116.8,134.4,112.6,145.9,112.6,145.9L112.6,145.9z M92.4,101.9c0,0,20.2-22.5,21.3-25.2
	c0,0,12.6,6.2,17,12.8C130.7,89.5,97.7,99.8,92.4,101.9L92.4,101.9z M119.2,71.2c0,0,35.1-13.3,38.5-13.5c0,0-8.7,16.3-23.1,30.5
	C134.6,88.1,126.7,75.5,119.2,71.2L119.2,71.2L119.2,71.2z M140.7,87c0,0,17.4-20.2,20.8-29.3c0,0,23.1,15.3,26.6,22.5
	C188.2,80.1,149.7,83.3,140.7,87L140.7,87L140.7,87z"/>
</svg>
