<?xml version="1.0" encoding="utf-8"?>
<!-- Generator: Adobe Illustrator 22.1.0, SVG Export Plug-In . SVG Version: 6.00 Build 0)  -->
<svg version="1.1" id="图层_1" xmlns="http://www.w3.org/2000/svg" xmlns:xlink="http://www.w3.org/1999/xlink" x="0px" y="0px"
	 viewBox="0 0 200 200" style="enable-background:new 0 0 200 200;" xml:space="preserve">
<style type="text/css">
	.st0{fill:#EC5937;}
</style>
<path class="st0" d="M179.9,35.5l-24.4-25.4C150.1,4.5,139.6,0,132.1,0H49.9c-7.5,0-13.7,6.4-13.7,14.2V83h11V14.2
	c0-1.5,1.3-2.8,2.7-2.8h82.2c0.8,0,1.7,0.1,2.7,0.3v45.2h43.5c0.2,1,0.3,6.6,0.3,7.5v121.4c0,1.5-1.3,2.8-2.7,2.8h-126
	c-1.5,0-2.7-1.3-2.7-2.8v-20.5h-11v20.5c0,7.8,6.2,14.2,13.7,14.2h126c7.5,0,13.7-6.4,13.7-14.2V64.4
	C189.6,56.6,185.2,41,179.9,35.5z M146,46.7V18.3c0.7,0.5,1.3,1,1.9,1.6l24.6,24.8c0.6,0.6,1.1,1.3,1.6,2L146,46.7L146,46.7z"/>
<path class="st0" d="M155.5,86.3H18.3c-4.3,0-7.8,3.5-7.8,7.8v53.7c0,4.3,3.5,7.8,7.8,7.8h137.3c4.3,0,7.8-3.5,7.8-7.8V94.1
	C163.3,89.8,159.8,86.3,155.5,86.3L155.5,86.3z M61.4,99.8l-11.5,19.6l13.1,22.6H51.5L43,126.7l-8.5,15.3h-9.4l13.1-22.5L26.6,99.8
	h11.5l6.8,12.8l7.2-12.8L61.4,99.8z M86,142.1l-10.4-34.4v34.4h-8.3V99.8h15.4l7.4,25.3l7.8-25.3h15.5v42.2h-10v-34.4l-10.6,34.4H86
	z M131.8,133.7h16.8v8.4h-26.8V99.8h10V133.7z"/>
</svg>
